ISO-10303-21;
HEADER;
FILE_DESCRIPTION(('Exported from ifc-lite with 426 modifications','Re-exported by ifc-lite, 624 modifications'),'2;1');
FILE_NAME('export.ifc','2026-10-05T11:09:31',(''),(''),'ifc-lite','ifc-lite','');
FILE_SCHEMA(('IFC4'));
ENDSEC;
DATA;
#1=IFCPERSON($,$,'',$,$,$,$,$);
#2=IFCORGANIZATION($,'ifc-lite',$,$,$);
#3=IFCPERSONANDORGANIZATION(#1,#2,$);
#4=IFCAPPLICATION(#2,'1.0','ifc-lite','ifc-lite');
#5=IFCOWNERHISTORY(#3,#4,$,.NOCHANGE.,$,$,$,1791198546);
#6=IFCCARTESIANPOINT((0.,0.,0.));
#7=IFCDIRECTION((0.,0.,1.));
#8=IFCDIRECTION((1.,0.,0.));
#9=IFCAXIS2PLACEMENT3D(#6,#7,#8);
#10=IFCLOCALPLACEMENT($,#9);
#11=IFCGEOMETRICREPRESENTATIONCONTEXT($,'Model',3,1.0E-5,#9,$);
#12=IFCGEOMETRICREPRESENTATIONSUBCONTEXT($,'Body',*,*,*,*,#11,$,.MODEL_VIEW.,$);
#13=IFCGEOMETRICREPRESENTATIONSUBCONTEXT($,'Axis',*,*,*,*,#11,$,.GRAPH_VIEW.,$);
#14=IFCDIMENSIONALEXPONENTS(0,0,0,0,0,0,0);
#15=IFCSIUNIT(*,.LENGTHUNIT.,$,.METRE.);
#16=IFCSIUNIT(*,.AREAUNIT.,$,.SQUARE_METRE.);
#17=IFCSIUNIT(*,.VOLUMEUNIT.,$,.CUBIC_METRE.);
#18=IFCSIUNIT(*,.PLANEANGLEUNIT.,$,.RADIAN.);
#19=IFCUNITASSIGNMENT((#15,#16,#17,#18));
#20=IFCCOLOURRGB($,0.75,0.73,0.68);
#21=IFCSURFACESTYLERENDERING(#20,0.,$,$,$,$,IFCNORMALISEDRATIOMEASURE(0.5),IFCSPECULAREXPONENT(64.),.NOTDEFINED.);
#22=IFCSURFACESTYLE('Default',.BOTH.,(#21));
#23=IFCPROJECT('2Jcrgxa7z85hkRMhpTTxdc',#5,'Scan to BIM',$,$,$,$,(#11),#19);
#24=IFCSITE('0_FusZFgD3D9yfLJT1xyiY',#5,'Site',$,$,#10,$,$,.ELEMENT.,$,$,$,$,$);
#25=IFCBUILDING('16cuzte3n9OfuaYiKcwRHh',#5,'Building',$,$,#10,$,$,.ELEMENT.,$,$,$);
#26=IFCBUILDINGSTOREY('36TYW0rKHEyv0JkjRV2kJ2',#5,'Level 1',$,$,#29,$,$,.ELEMENT.,0.);
#27=IFCCARTESIANPOINT((0.,0.,0.));
#28=IFCAXIS2PLACEMENT3D(#27,$,$);
#29=IFCLOCALPLACEMENT(#10,#28);
#30=IFCRELAGGREGATES('1Cljzfx6r8eg0Ir$Gwhnnq',#5,$,$,#23,(#24));
#31=IFCRELAGGREGATES('0gcENIjkP7IvoY0jbjGVkI',#5,$,$,#24,(#25));
#32=IFCRELAGGREGATES('3IIhYyj7r5h8JsumZm9TeA',#5,$,$,#25,(#26));
#459=IFCPROPERTYSINGLEVALUE('SourceScan',$,IFCLABEL('Apartment.e57'),$);
#460=IFCPROPERTYSINGLEVALUE('DetectionId',$,IFCIDENTIFIER('wall-0'),$);
#461=IFCPROPERTYSINGLEVALUE('Basis',$,IFCLABEL('pairedFaces'),$);
#462=IFCPROPERTYSINGLEVALUE('SourceDetections',$,IFCLABEL('plane:5 plane:6'),$);
#463=IFCPROPERTYSINGLEVALUE('Confidence',$,IFCREAL(0.435),$);
#464=IFCPROPERTYSINGLEVALUE('FitRmsMetres',$,IFCREAL(0.0070681888736588315),$);
#465=IFCPROPERTYSINGLEVALUE('InlierPoints',$,IFCINTEGER(89511),$);
#466=IFCPROPERTYSET('1gkOAM6RX3keB9o_Ow2cbY',#5,'IfcLite_ScanDetection',$,(#459,#460,#461,#462,#463,#464,#465));
#467=IFCRELDEFINESBYPROPERTIES('2k0rbX2i57Auc8d$OjrHE_',#5,$,$,(#51),#466);
#468=IFCPROPERTYSINGLEVALUE('SourceScan',$,IFCLABEL('Apartment.e57'),$);
#469=IFCPROPERTYSINGLEVALUE('DetectionId',$,IFCIDENTIFIER('wall-2'),$);
#470=IFCPROPERTYSINGLEVALUE('Basis',$,IFCLABEL('pairedFaces'),$);
#471=IFCPROPERTYSINGLEVALUE('SourceDetections',$,IFCLABEL('plane:8 plane:10'),$);
#472=IFCPROPERTYSINGLEVALUE('Confidence',$,IFCREAL(0.471),$);
#473=IFCPROPERTYSINGLEVALUE('FitRmsMetres',$,IFCREAL(0.006353844066143615),$);
#474=IFCPROPERTYSINGLEVALUE('InlierPoints',$,IFCINTEGER(59117),$);
#475=IFCPROPERTYSET('1UMlsZTiT3V89GgL8vGusM',#5,'IfcLite_ScanDetection',$,(#468,#469,#470,#471,#472,#473,#474));
#476=IFCRELDEFINESBYPROPERTIES('3QItmT79v9OA$S4MIbGYF6',#5,$,$,(#71),#475);
#477=IFCPROPERTYSINGLEVALUE('SourceScan',$,IFCLABEL('Apartment.e57'),$);
#478=IFCPROPERTYSINGLEVALUE('DetectionId',$,IFCIDENTIFIER('wall-3'),$);
#479=IFCPROPERTYSINGLEVALUE('Basis',$,IFCLABEL('singleFace'),$);
#480=IFCPROPERTYSINGLEVALUE('SourceDetections',$,IFCLABEL('plane:4'),$);
#481=IFCPROPERTYSINGLEVALUE('Confidence',$,IFCREAL(0.486),$);
#482=IFCPROPERTYSINGLEVALUE('FitRmsMetres',$,IFCREAL(0.005957308580943204),$);
#483=IFCPROPERTYSINGLEVALUE('InlierPoints',$,IFCINTEGER(59970),$);
#484=IFCPROPERTYSET('2lw8qy58v7evzNfoc0HYQq',#5,'IfcLite_ScanDetection',$,(#477,#478,#479,#480,#481,#482,#483));
#485=IFCRELDEFINESBYPROPERTIES('1dZTK0CRf05fBvMjeWnyaU',#5,$,$,(#91),#484);
#486=IFCPROPERTYSINGLEVALUE('SourceScan',$,IFCLABEL('Apartment.e57'),$);
#487=IFCPROPERTYSINGLEVALUE('DetectionId',$,IFCIDENTIFIER('wall-5'),$);
#488=IFCPROPERTYSINGLEVALUE('Basis',$,IFCLABEL('pairedFaces'),$);
#489=IFCPROPERTYSINGLEVALUE('SourceDetections',$,IFCLABEL('plane:11 plane:16'),$);
#490=IFCPROPERTYSINGLEVALUE('Confidence',$,IFCREAL(0.353),$);
#491=IFCPROPERTYSINGLEVALUE('FitRmsMetres',$,IFCREAL(0.007168731524906219),$);
#492=IFCPROPERTYSINGLEVALUE('InlierPoints',$,IFCINTEGER(49120),$);
#493=IFCPROPERTYSET('0Pun_LJNrDLO9ler8LKD82',#5,'IfcLite_ScanDetection',$,(#486,#487,#488,#489,#490,#491,#492));
#494=IFCRELDEFINESBYPROPERTIES('1RXx0rqNPFuOYpEvPA6srG',#5,$,$,(#111),#493);
#495=IFCPROPERTYSINGLEVALUE('SourceScan',$,IFCLABEL('Apartment.e57'),$);
#496=IFCPROPERTYSINGLEVALUE('DetectionId',$,IFCIDENTIFIER('wall-6'),$);
#497=IFCPROPERTYSINGLEVALUE('Basis',$,IFCLABEL('singleFace'),$);
#498=IFCPROPERTYSINGLEVALUE('SourceDetections',$,IFCLABEL('plane:9'),$);
#499=IFCPROPERTYSINGLEVALUE('Confidence',$,IFCREAL(0.39),$);
#500=IFCPROPERTYSINGLEVALUE('FitRmsMetres',$,IFCREAL(0.007710348788646202),$);
#501=IFCPROPERTYSINGLEVALUE('InlierPoints',$,IFCINTEGER(48740),$);
#502=IFCPROPERTYSET('1XuFSA4ED4ewZrOAou1UiL',#5,'IfcLite_ScanDetection',$,(#495,#496,#497,#498,#499,#500,#501));
#503=IFCRELDEFINESBYPROPERTIES('1iZfnACGT1_PJCrK8eX5jS',#5,$,$,(#131),#502);
#504=IFCPROPERTYSINGLEVALUE('SourceScan',$,IFCLABEL('Apartment.e57'),$);
#505=IFCPROPERTYSINGLEVALUE('DetectionId',$,IFCIDENTIFIER('wall-8'),$);
#506=IFCPROPERTYSINGLEVALUE('Basis',$,IFCLABEL('singleFace'),$);
#507=IFCPROPERTYSINGLEVALUE('SourceDetections',$,IFCLABEL('plane:14'),$);
#508=IFCPROPERTYSINGLEVALUE('Confidence',$,IFCREAL(0.394),$);
#509=IFCPROPERTYSINGLEVALUE('FitRmsMetres',$,IFCREAL(0.008350458386496125),$);
#510=IFCPROPERTYSINGLEVALUE('InlierPoints',$,IFCINTEGER(23795),$);
#511=IFCPROPERTYSET('3HUDlCfH56M88fYNKfmMQj',#5,'IfcLite_ScanDetection',$,(#504,#505,#506,#507,#508,#509,#510));
#512=IFCRELDEFINESBYPROPERTIES('0hx0aspgXFiuziwPwwvMZ5',#5,$,$,(#151),#511);
#513=IFCPROPERTYSINGLEVALUE('SourceScan',$,IFCLABEL('Apartment.e57'),$);
#514=IFCPROPERTYSINGLEVALUE('DetectionId',$,IFCIDENTIFIER('wall-11'),$);
#515=IFCPROPERTYSINGLEVALUE('Basis',$,IFCLABEL('singleFace'),$);
#516=IFCPROPERTYSINGLEVALUE('SourceDetections',$,IFCLABEL('plane:17'),$);
#517=IFCPROPERTYSINGLEVALUE('Confidence',$,IFCREAL(0.518),$);
#518=IFCPROPERTYSINGLEVALUE('FitRmsMetres',$,IFCREAL(0.005517162061462434),$);
#519=IFCPROPERTYSINGLEVALUE('InlierPoints',$,IFCINTEGER(22634),$);
#520=IFCPROPERTYSET('1_VPiMwwfAEu8LmB8KjgkE',#5,'IfcLite_ScanDetection',$,(#513,#514,#515,#516,#517,#518,#519));
#521=IFCRELDEFINESBYPROPERTIES('2mIPyAL5n3L8KTAtQHS9Nw',#5,$,$,(#171),#520);
#522=IFCPROPERTYSINGLEVALUE('SourceScan',$,IFCLABEL('Apartment.e57'),$);
#523=IFCPROPERTYSINGLEVALUE('DetectionId',$,IFCIDENTIFIER('wall-12'),$);
#524=IFCPROPERTYSINGLEVALUE('Basis',$,IFCLABEL('singleFace'),$);
#525=IFCPROPERTYSINGLEVALUE('SourceDetections',$,IFCLABEL('plane:18'),$);
#526=IFCPROPERTYSINGLEVALUE('Confidence',$,IFCREAL(0.375),$);
#527=IFCPROPERTYSINGLEVALUE('FitRmsMetres',$,IFCREAL(0.007109143817130606),$);
#528=IFCPROPERTYSINGLEVALUE('InlierPoints',$,IFCINTEGER(17244),$);
#529=IFCPROPERTYSET('0ZgYzniB97ruNDPHr_DD8n',#5,'IfcLite_ScanDetection',$,(#522,#523,#524,#525,#526,#527,#528));
#530=IFCRELDEFINESBYPROPERTIES('2ySHry3VHCvh2B9DTefmJC',#5,$,$,(#191),#529);
#531=IFCPROPERTYSINGLEVALUE('SourceScan',$,IFCLABEL('Apartment.e57'),$);
#532=IFCPROPERTYSINGLEVALUE('DetectionId',$,IFCIDENTIFIER('wall-13'),$);
#533=IFCPROPERTYSINGLEVALUE('Basis',$,IFCLABEL('pairedFaces'),$);
#534=IFCPROPERTYSINGLEVALUE('SourceDetections',$,IFCLABEL('plane:33 plane:36'),$);
#535=IFCPROPERTYSINGLEVALUE('Confidence',$,IFCREAL(0.415),$);
#536=IFCPROPERTYSINGLEVALUE('FitRmsMetres',$,IFCREAL(0.0060698576112962555),$);
#537=IFCPROPERTYSINGLEVALUE('InlierPoints',$,IFCINTEGER(10085),$);
#538=IFCPROPERTYSET('0Bu0PDV3X5mgliDW1919o3',#5,'IfcLite_ScanDetection',$,(#531,#532,#533,#534,#535,#536,#537));
#539=IFCRELDEFINESBYPROPERTIES('3F0ZTgh6nCZuQ2zdHtKwpi',#5,$,$,(#211),#538);
#540=IFCPROPERTYSINGLEVALUE('SourceScan',$,IFCLABEL('Apartment.e57'),$);
#541=IFCPROPERTYSINGLEVALUE('DetectionId',$,IFCIDENTIFIER('wall-19'),$);
#542=IFCPROPERTYSINGLEVALUE('Basis',$,IFCLABEL('singleFace'),$);
#543=IFCPROPERTYSINGLEVALUE('SourceDetections',$,IFCLABEL('plane:37'),$);
#544=IFCPROPERTYSINGLEVALUE('Confidence',$,IFCREAL(0.362),$);
#545=IFCPROPERTYSINGLEVALUE('FitRmsMetres',$,IFCREAL(0.008380732640753872),$);
#546=IFCPROPERTYSINGLEVALUE('InlierPoints',$,IFCINTEGER(9900),$);
#547=IFCPROPERTYSET('2sUqxj_Rn8GAMRjjg8XbSD',#5,'IfcLite_ScanDetection',$,(#540,#541,#542,#543,#544,#545,#546));
#548=IFCRELDEFINESBYPROPERTIES('1jeu_gLPj3i9nNrRxENiFn',#5,$,$,(#231),#547);
#549=IFCPROPERTYSINGLEVALUE('SourceScan',$,IFCLABEL('Apartment.e57'),$);
#550=IFCPROPERTYSINGLEVALUE('DetectionId',$,IFCIDENTIFIER('wall-20'),$);
#551=IFCPROPERTYSINGLEVALUE('Basis',$,IFCLABEL('singleFace'),$);
#552=IFCPROPERTYSINGLEVALUE('SourceDetections',$,IFCLABEL('plane:39'),$);
#553=IFCPROPERTYSINGLEVALUE('Confidence',$,IFCREAL(0.377),$);
#554=IFCPROPERTYSINGLEVALUE('FitRmsMetres',$,IFCREAL(0.005329660832753664),$);
#555=IFCPROPERTYSINGLEVALUE('InlierPoints',$,IFCINTEGER(3714),$);
#556=IFCPROPERTYSET('0OB93XVnbCRuscShzF3BUh',#5,'IfcLite_ScanDetection',$,(#549,#550,#551,#552,#553,#554,#555));
#557=IFCRELDEFINESBYPROPERTIES('1Do50giDD0dBhUJrlqsNw3',#5,$,$,(#251),#556);
#558=IFCPROPERTYSINGLEVALUE('SourceScan',$,IFCLABEL('Apartment.e57'),$);
#559=IFCPROPERTYSINGLEVALUE('DetectionId',$,IFCIDENTIFIER('wall-23'),$);
#560=IFCPROPERTYSINGLEVALUE('Basis',$,IFCLABEL('singleFace'),$);
#561=IFCPROPERTYSINGLEVALUE('SourceDetections',$,IFCLABEL('plane:42'),$);
#562=IFCPROPERTYSINGLEVALUE('Confidence',$,IFCREAL(0.502),$);
#563=IFCPROPERTYSINGLEVALUE('FitRmsMetres',$,IFCREAL(0.004670366503755465),$);
#564=IFCPROPERTYSINGLEVALUE('InlierPoints',$,IFCINTEGER(6263),$);
#565=IFCPROPERTYSET('0mCegmcLLCKQufSMZy_KBM',#5,'IfcLite_ScanDetection',$,(#558,#559,#560,#561,#562,#563,#564));
#566=IFCRELDEFINESBYPROPERTIES('1WCxATdmz1lQF7nBhSWRIY',#5,$,$,(#271),#565);
#567=IFCPROPERTYSINGLEVALUE('SourceScan',$,IFCLABEL('Apartment.e57'),$);
#568=IFCPROPERTYSINGLEVALUE('DetectionId',$,IFCIDENTIFIER('wall-24'),$);
#569=IFCPROPERTYSINGLEVALUE('Basis',$,IFCLABEL('singleFace'),$);
#570=IFCPROPERTYSINGLEVALUE('SourceDetections',$,IFCLABEL('plane:43'),$);
#571=IFCPROPERTYSINGLEVALUE('Confidence',$,IFCREAL(0.429),$);
#572=IFCPROPERTYSINGLEVALUE('FitRmsMetres',$,IFCREAL(0.005254316790333195),$);
#573=IFCPROPERTYSINGLEVALUE('InlierPoints',$,IFCINTEGER(7069),$);
#574=IFCPROPERTYSET('1QgwT8Fo55cADmFTVLkdD2',#5,'IfcLite_ScanDetection',$,(#567,#568,#569,#570,#571,#572,#573));
#575=IFCRELDEFINESBYPROPERTIES('3oXHqo8abClhYjmzTzavWr',#5,$,$,(#291),#574);
#576=IFCPROPERTYSINGLEVALUE('SourceScan',$,IFCLABEL('Apartment.e57'),$);
#577=IFCPROPERTYSINGLEVALUE('DetectionId',$,IFCIDENTIFIER('wall-28'),$);
#578=IFCPROPERTYSINGLEVALUE('Basis',$,IFCLABEL('singleFace'),$);
#579=IFCPROPERTYSINGLEVALUE('SourceDetections',$,IFCLABEL('plane:50'),$);
#580=IFCPROPERTYSINGLEVALUE('Confidence',$,IFCREAL(0.537),$);
#581=IFCPROPERTYSINGLEVALUE('FitRmsMetres',$,IFCREAL(0.0036182256321852357),$);
#582=IFCPROPERTYSINGLEVALUE('InlierPoints',$,IFCINTEGER(3430),$);
#583=IFCPROPERTYSET('0Ket8PJ31FmfsLRsqOalW1',#5,'IfcLite_ScanDetection',$,(#576,#577,#578,#579,#580,#581,#582));
#584=IFCRELDEFINESBYPROPERTIES('3otZ8oDTXF2A_f4UFlIgOx',#5,$,$,(#311),#583);
#585=IFCPROPERTYSINGLEVALUE('SourceScan',$,IFCLABEL('Apartment.e57'),$);
#586=IFCPROPERTYSINGLEVALUE('DetectionId',$,IFCIDENTIFIER('wall-29'),$);
#587=IFCPROPERTYSINGLEVALUE('Basis',$,IFCLABEL('singleFace'),$);
#588=IFCPROPERTYSINGLEVALUE('SourceDetections',$,IFCLABEL('plane:56'),$);
#589=IFCPROPERTYSINGLEVALUE('Confidence',$,IFCREAL(0.339),$);
#590=IFCPROPERTYSINGLEVALUE('FitRmsMetres',$,IFCREAL(0.003408202042855738),$);
#591=IFCPROPERTYSINGLEVALUE('InlierPoints',$,IFCINTEGER(1379),$);
#592=IFCPROPERTYSET('3lEIuS$nfDcPClNk$ks7Vh',#5,'IfcLite_ScanDetection',$,(#585,#586,#587,#588,#589,#590,#591));
#593=IFCRELDEFINESBYPROPERTIES('02Zjbfpa91zPC8nfKrt6KP',#5,$,$,(#331),#592);
#594=IFCPROPERTYSINGLEVALUE('SourceScan',$,IFCLABEL('Apartment.e57'),$);
#595=IFCPROPERTYSINGLEVALUE('DetectionId',$,IFCIDENTIFIER('slab-0'),$);
#596=IFCPROPERTYSINGLEVALUE('Basis',$,IFCLABEL('floor'),$);
#597=IFCPROPERTYSINGLEVALUE('SourceDetections',$,IFCLABEL('plane:0'),$);
#598=IFCPROPERTYSINGLEVALUE('Confidence',$,IFCREAL(0.346),$);
#599=IFCPROPERTYSINGLEVALUE('FitRmsMetres',$,IFCREAL(0.007846381268912262),$);
#600=IFCPROPERTYSINGLEVALUE('InlierPoints',$,IFCINTEGER(388567),$);
#601=IFCPROPERTYSET('2Ff05iAQr8kwA4WMDdKLmS',#5,'IfcLite_ScanDetection',$,(#594,#595,#596,#597,#598,#599,#600));
#602=IFCRELDEFINESBYPROPERTIES('0RLEbwPtvFh9ZcDZpSh18d',#5,$,$,(#349),#601);
#603=IFCPROPERTYSINGLEVALUE('SourceScan',$,IFCLABEL('Apartment.e57'),$);
#604=IFCPROPERTYSINGLEVALUE('DetectionId',$,IFCIDENTIFIER('slab-1'),$);
#605=IFCPROPERTYSINGLEVALUE('Basis',$,IFCLABEL('ceiling'),$);
#606=IFCPROPERTYSINGLEVALUE('SourceDetections',$,IFCLABEL('plane:1'),$);
#607=IFCPROPERTYSINGLEVALUE('Confidence',$,IFCREAL(0.418),$);
#608=IFCPROPERTYSINGLEVALUE('FitRmsMetres',$,IFCREAL(0.007245736759523068),$);
#609=IFCPROPERTYSINGLEVALUE('InlierPoints',$,IFCINTEGER(142029),$);
#610=IFCPROPERTYSET('0x9d1UcDD1hheI7DP6fd04',#5,'IfcLite_ScanDetection',$,(#603,#604,#605,#606,#607,#608,#609));
#611=IFCRELDEFINESBYPROPERTIES('3kSSE8sXDA5h4TuFQt9U_S',#5,$,$,(#367),#610);
#612=IFCPROPERTYSINGLEVALUE('SourceScan',$,IFCLABEL('Apartment.e57'),$);
#613=IFCPROPERTYSINGLEVALUE('DetectionId',$,IFCIDENTIFIER('slab-2'),$);
#614=IFCPROPERTYSINGLEVALUE('Basis',$,IFCLABEL('ceiling'),$);
#615=IFCPROPERTYSINGLEVALUE('SourceDetections',$,IFCLABEL('plane:3'),$);
#616=IFCPROPERTYSINGLEVALUE('Confidence',$,IFCREAL(0.305),$);
#617=IFCPROPERTYSINGLEVALUE('FitRmsMetres',$,IFCREAL(0.00915177071552577),$);
#618=IFCPROPERTYSINGLEVALUE('InlierPoints',$,IFCINTEGER(53311),$);
#619=IFCPROPERTYSET('2n9WQMsS9DARCe5xSku42q',#5,'IfcLite_ScanDetection',$,(#612,#613,#614,#615,#616,#617,#618));
#620=IFCRELDEFINESBYPROPERTIES('1tm_ciPJX9V9vU7AGDmaue',#5,$,$,(#385),#619);
#621=IFCPROPERTYSINGLEVALUE('SourceScan',$,IFCLABEL('Apartment.e57'),$);
#622=IFCPROPERTYSINGLEVALUE('DetectionId',$,IFCIDENTIFIER('slab-3'),$);
#623=IFCPROPERTYSINGLEVALUE('Basis',$,IFCLABEL('ceiling'),$);
#624=IFCPROPERTYSINGLEVALUE('SourceDetections',$,IFCLABEL('plane:12'),$);
#625=IFCPROPERTYSINGLEVALUE('Confidence',$,IFCREAL(0.542),$);
#626=IFCPROPERTYSINGLEVALUE('FitRmsMetres',$,IFCREAL(0.005568567148314512),$);
#627=IFCPROPERTYSINGLEVALUE('InlierPoints',$,IFCINTEGER(30013),$);
#628=IFCPROPERTYSET('3UzC9qz7r18R4ZdIl8qm4k',#5,'IfcLite_ScanDetection',$,(#621,#622,#623,#624,#625,#626,#627));
#629=IFCRELDEFINESBYPROPERTIES('3YIm1EWTfCwABMIxmKXfRT',#5,$,$,(#403),#628);
#630=IFCPROPERTYSINGLEVALUE('SourceScan',$,IFCLABEL('Apartment.e57'),$);
#631=IFCPROPERTYSINGLEVALUE('DetectionId',$,IFCIDENTIFIER('slab-4'),$);
#632=IFCPROPERTYSINGLEVALUE('Basis',$,IFCLABEL('ceiling'),$);
#633=IFCPROPERTYSINGLEVALUE('SourceDetections',$,IFCLABEL('plane:13'),$);
#634=IFCPROPERTYSINGLEVALUE('Confidence',$,IFCREAL(0.583),$);
#635=IFCPROPERTYSINGLEVALUE('FitRmsMetres',$,IFCREAL(0.0030518658640159885),$);
#636=IFCPROPERTYSINGLEVALUE('InlierPoints',$,IFCINTEGER(23134),$);
#637=IFCPROPERTYSET('2VVft_CgTCXxpa$ulR3tsL',#5,'IfcLite_ScanDetection',$,(#630,#631,#632,#633,#634,#635,#636));
#638=IFCRELDEFINESBYPROPERTIES('0R5u5A1IfDXhS7MbU1F2Or',#5,$,$,(#421),#637);
#639=IFCPROPERTYSINGLEVALUE('SourceScan',$,IFCLABEL('Apartment.e57'),$);
#640=IFCPROPERTYSINGLEVALUE('DetectionId',$,IFCIDENTIFIER('slab-5'),$);
#641=IFCPROPERTYSINGLEVALUE('Basis',$,IFCLABEL('ceiling'),$);
#642=IFCPROPERTYSINGLEVALUE('SourceDetections',$,IFCLABEL('plane:15'),$);
#643=IFCPROPERTYSINGLEVALUE('Confidence',$,IFCREAL(0.458),$);
#644=IFCPROPERTYSINGLEVALUE('FitRmsMetres',$,IFCREAL(0.004733430165014554),$);
#645=IFCPROPERTYSINGLEVALUE('InlierPoints',$,IFCINTEGER(13621),$);
#646=IFCPROPERTYSET('1tIc304nj1V8ItPQ1nv5zx',#5,'IfcLite_ScanDetection',$,(#639,#640,#641,#642,#643,#644,#645));
#647=IFCRELDEFINESBYPROPERTIES('17PCIfjynE4PU72azlo14E',#5,$,$,(#439),#646);
#648=IFCPROPERTYSINGLEVALUE('SourceScan',$,IFCLABEL('Apartment.e57'),$);
#649=IFCPROPERTYSINGLEVALUE('DetectionId',$,IFCIDENTIFIER('slab-6'),$);
#650=IFCPROPERTYSINGLEVALUE('Basis',$,IFCLABEL('floor'),$);
#651=IFCPROPERTYSINGLEVALUE('SourceDetections',$,IFCLABEL('plane:29'),$);
#652=IFCPROPERTYSINGLEVALUE('Confidence',$,IFCREAL(0.302),$);
#653=IFCPROPERTYSINGLEVALUE('FitRmsMetres',$,IFCREAL(0.003759866963654442),$);
#654=IFCPROPERTYSINGLEVALUE('InlierPoints',$,IFCINTEGER(3779),$);
#655=IFCPROPERTYSET('1NUoxcKwr5vw5eiTpshwQr',#5,'IfcLite_ScanDetection',$,(#648,#649,#650,#651,#652,#653,#654));
#656=IFCRELDEFINESBYPROPERTIES('3guDPgq8XDifbC1m3xhdiP',#5,$,$,(#457),#655);
#33=IFCCARTESIANPOINT((1.7691972360187653,-4.9389361903096525,-1.365618167585672));
#34=IFCDIRECTION((0.,0.,1.));
#35=IFCDIRECTION((0.6324070959075344,0.7746362146490432,0.));
#36=IFCAXIS2PLACEMENT3D(#33,#34,#35);
#37=IFCLOCALPLACEMENT(#29,#36);
#38=IFCCARTESIANPOINT((2.498822165,0.));
#39=IFCAXIS2PLACEMENT2D(#38,$);
#40=IFCRECTANGLEPROFILEDEF(.AREA.,$,#39,4.99764433,0.15939203);
#41=IFCCARTESIANPOINT((0.,0.,0.));
#42=IFCAXIS2PLACEMENT3D(#41,$,$);
#43=IFCDIRECTION((0.,0.,1.));
#44=IFCEXTRUDEDAREASOLID(#40,#42,#43,2.5385603322434775);
#45=IFCSHAPEREPRESENTATION(#12,'Body','SweptSolid',(#44));
#46=IFCCARTESIANPOINT((0.,0.));
#47=IFCCARTESIANPOINT((4.99764433,0.));
#48=IFCPOLYLINE((#46,#47));
#49=IFCSHAPEREPRESENTATION(#13,'Axis','Curve2D',(#48));
#50=IFCPRODUCTDEFINITIONSHAPE($,$,(#45,#49));
#52=IFCRELCONTAINEDINSPATIALSTRUCTURE('083BPX5rz2Wv4GlqwaDeWv',#5,$,$,(#51),#26);
#53=IFCCARTESIANPOINT((1.5801439584259611,-5.080506517078092,-1.365618167585672));
#54=IFCDIRECTION((0.,0.,1.));
#55=IFCDIRECTION((-0.784722145965125,0.6198476858324866,0.));
#56=IFCAXIS2PLACEMENT3D(#53,#54,#55);
#57=IFCLOCALPLACEMENT(#29,#56);
#58=IFCCARTESIANPOINT((1.554599631,0.));
#59=IFCAXIS2PLACEMENT2D(#58,$);
#60=IFCRECTANGLEPROFILEDEF(.AREA.,$,#59,3.109199262,0.115466888);
#61=IFCCARTESIANPOINT((0.,0.,0.));
#62=IFCAXIS2PLACEMENT3D(#61,$,$);
#63=IFCDIRECTION((0.,0.,1.));
#64=IFCEXTRUDEDAREASOLID(#60,#62,#63,2.5312016171103195);
#65=IFCSHAPEREPRESENTATION(#12,'Body','SweptSolid',(#64));
#66=IFCCARTESIANPOINT((0.,0.));
#67=IFCCARTESIANPOINT((3.109199262,0.));
#68=IFCPOLYLINE((#66,#67));
#69=IFCSHAPEREPRESENTATION(#13,'Axis','Curve2D',(#68));
#70=IFCPRODUCTDEFINITIONSHAPE($,$,(#65,#69));
#72=IFCRELCONTAINEDINSPATIALSTRUCTURE('0aWR4X$c122h5GsKqDy7tG',#5,$,$,(#71),#26);
#73=IFCCARTESIANPOINT((5.18317451490508,-6.50442822107227,-1.365618167585672));
#74=IFCDIRECTION((0.,0.,1.));
#75=IFCDIRECTION((0.6264364366493058,0.7794725080707597,0.));
#76=IFCAXIS2PLACEMENT3D(#73,#74,#75);
#77=IFCLOCALPLACEMENT(#29,#76);
#78=IFCCARTESIANPOINT((2.022045575,0.));
#79=IFCAXIS2PLACEMENT2D(#78,$);
#80=IFCRECTANGLEPROFILEDEF(.AREA.,$,#79,4.044091149,0.2);
#81=IFCCARTESIANPOINT((0.,0.,0.));
#82=IFCAXIS2PLACEMENT3D(#81,$,$);
#83=IFCDIRECTION((0.,0.,1.));
#84=IFCEXTRUDEDAREASOLID(#80,#82,#83,2.5385603322434775);
#85=IFCSHAPEREPRESENTATION(#12,'Body','SweptSolid',(#84));
#86=IFCCARTESIANPOINT((0.,0.));
#87=IFCCARTESIANPOINT((4.044091149,0.));
#88=IFCPOLYLINE((#86,#87));
#89=IFCSHAPEREPRESENTATION(#13,'Axis','Curve2D',(#88));
#90=IFCPRODUCTDEFINITIONSHAPE($,$,(#85,#89));
#92=IFCRELCONTAINEDINSPATIALSTRUCTURE('0Ebo4OpdXCRAuRV8pkEuVg',#5,$,$,(#91),#26);
#93=IFCCARTESIANPOINT((1.8042295536938822,-7.533983370929221,-1.365618167585672));
#94=IFCDIRECTION((0.,0.,1.));
#95=IFCDIRECTION((0.6230300187099248,0.7821979262222003,0.));
#96=IFCAXIS2PLACEMENT3D(#93,#94,#95);
#97=IFCLOCALPLACEMENT(#29,#96);
#98=IFCCARTESIANPOINT((1.368934563,0.));
#99=IFCAXIS2PLACEMENT2D(#98,$);
#100=IFCRECTANGLEPROFILEDEF(.AREA.,$,#99,2.737869126,0.1312285);
#101=IFCCARTESIANPOINT((0.,0.,0.));
#102=IFCAXIS2PLACEMENT3D(#101,$,$);
#103=IFCDIRECTION((0.,0.,1.));
#104=IFCEXTRUDEDAREASOLID(#100,#102,#103,2.307887621241091);
#105=IFCSHAPEREPRESENTATION(#12,'Body','SweptSolid',(#104));
#106=IFCCARTESIANPOINT((0.,0.));
#107=IFCCARTESIANPOINT((2.737869126,0.));
#108=IFCPOLYLINE((#106,#107));
#109=IFCSHAPEREPRESENTATION(#13,'Axis','Curve2D',(#108));
#110=IFCPRODUCTDEFINITIONSHAPE($,$,(#105,#109));
#112=IFCRELCONTAINEDINSPATIALSTRUCTURE('0p2DENtNH6bQvQFoVmiRuv',#5,$,$,(#111),#26);
#113=IFCCARTESIANPOINT((3.39252222888342,-8.680600040646233,-1.365618167585672));
#114=IFCDIRECTION((0.,0.,1.));
#115=IFCDIRECTION((0.6257859735457225,0.7799948174913935,0.));
#116=IFCAXIS2PLACEMENT3D(#113,#114,#115);
#117=IFCLOCALPLACEMENT(#29,#116);
#118=IFCCARTESIANPOINT((1.214799801,0.));
#119=IFCAXIS2PLACEMENT2D(#118,$);
#120=IFCRECTANGLEPROFILEDEF(.AREA.,$,#119,2.429599603,0.2);
#121=IFCCARTESIANPOINT((0.,0.,0.));
#122=IFCAXIS2PLACEMENT3D(#121,$,$);
#123=IFCDIRECTION((0.,0.,1.));
#124=IFCEXTRUDEDAREASOLID(#120,#122,#123,2.278631365516306);
#125=IFCSHAPEREPRESENTATION(#12,'Body','SweptSolid',(#124));
#126=IFCCARTESIANPOINT((0.,0.));
#127=IFCCARTESIANPOINT((2.429599603,0.));
#128=IFCPOLYLINE((#126,#127));
#129=IFCSHAPEREPRESENTATION(#13,'Axis','Curve2D',(#128));
#130=IFCPRODUCTDEFINITIONSHAPE($,$,(#125,#129));
#132=IFCRELCONTAINEDINSPATIALSTRUCTURE('0fCbkY1A96agD2xJfR6q0x',#5,$,$,(#131),#26);
#133=IFCCARTESIANPOINT((1.677573658399853,-7.563667270806438,-1.365618167585672));
#134=IFCDIRECTION((0.,0.,1.));
#135=IFCDIRECTION((-0.777626657135006,0.6287263173377076,0.));
#136=IFCAXIS2PLACEMENT3D(#133,#134,#135);
#137=IFCLOCALPLACEMENT(#29,#136);
#138=IFCCARTESIANPOINT((0.789957573,0.));
#139=IFCAXIS2PLACEMENT2D(#138,$);
#140=IFCRECTANGLEPROFILEDEF(.AREA.,$,#139,1.579915146,0.2);
#141=IFCCARTESIANPOINT((0.,0.,0.));
#142=IFCAXIS2PLACEMENT3D(#141,$,$);
#143=IFCDIRECTION((0.,0.,1.));
#144=IFCEXTRUDEDAREASOLID(#140,#142,#143,2.307887621241091);
#145=IFCSHAPEREPRESENTATION(#12,'Body','SweptSolid',(#144));
#146=IFCCARTESIANPOINT((0.,0.));
#147=IFCCARTESIANPOINT((1.579915146,0.));
#148=IFCPOLYLINE((#146,#147));
#149=IFCSHAPEREPRESENTATION(#13,'Axis','Curve2D',(#148));
#150=IFCPRODUCTDEFINITIONSHAPE($,$,(#145,#149));
#152=IFCRELCONTAINEDINSPATIALSTRUCTURE('0GCrmkWRT6ughFaX4Vn8Hh',#5,$,$,(#151),#26);
#153=IFCCARTESIANPOINT((3.234526098459036,-8.71011928262859,-0.8096265664638258));
#154=IFCDIRECTION((0.,0.,1.));
#155=IFCDIRECTION((-0.7873431993523806,0.6165149523195341,0.));
#156=IFCAXIS2PLACEMENT3D(#153,#154,#155);
#157=IFCLOCALPLACEMENT(#29,#156);
#158=IFCCARTESIANPOINT((0.880319884,0.));
#159=IFCAXIS2PLACEMENT2D(#158,$);
#160=IFCRECTANGLEPROFILEDEF(.AREA.,$,#159,1.760639768,0.2);
#161=IFCCARTESIANPOINT((0.,0.,0.));
#162=IFCAXIS2PLACEMENT3D(#161,$,$);
#163=IFCDIRECTION((0.,0.,1.));
#164=IFCEXTRUDEDAREASOLID(#160,#162,#163,1.7226397643944598);
#165=IFCSHAPEREPRESENTATION(#12,'Body','SweptSolid',(#164));
#166=IFCCARTESIANPOINT((0.,0.));
#167=IFCCARTESIANPOINT((1.760639768,0.));
#168=IFCPOLYLINE((#166,#167));
#169=IFCSHAPEREPRESENTATION(#13,'Axis','Curve2D',(#168));
#170=IFCPRODUCTDEFINITIONSHAPE($,$,(#165,#169));
#172=IFCRELCONTAINEDINSPATIALSTRUCTURE('1MnlzzP5v9Tghd0$sjgHk_',#5,$,$,(#171),#26);
#173=IFCCARTESIANPOINT((7.72778046799222,-3.216932141776171,-1.365618167585672));
#174=IFCDIRECTION((0.,0.,1.));
#175=IFCDIRECTION((-0.7898527738458774,0.6132964989692777,0.));
#176=IFCAXIS2PLACEMENT3D(#173,#174,#175);
#177=IFCLOCALPLACEMENT(#29,#176);
#178=IFCCARTESIANPOINT((0.630237231,0.));
#179=IFCAXIS2PLACEMENT2D(#178,$);
#180=IFCRECTANGLEPROFILEDEF(.AREA.,$,#179,1.260474461,0.2);
#181=IFCCARTESIANPOINT((0.,0.,0.));
#182=IFCAXIS2PLACEMENT3D(#181,$,$);
#183=IFCDIRECTION((0.,0.,1.));
#184=IFCEXTRUDEDAREASOLID(#180,#182,#183,2.5385603322434775);
#185=IFCSHAPEREPRESENTATION(#12,'Body','SweptSolid',(#184));
#186=IFCCARTESIANPOINT((0.,0.));
#187=IFCCARTESIANPOINT((1.260474461,0.));
#188=IFCPOLYLINE((#186,#187));
#189=IFCSHAPEREPRESENTATION(#13,'Axis','Curve2D',(#188));
#190=IFCPRODUCTDEFINITIONSHAPE($,$,(#185,#189));
#192=IFCRELCONTAINEDINSPATIALSTRUCTURE('3y5$KkevL51uMOhNUB$XU$',#5,$,$,(#191),#26);
#193=IFCCARTESIANPOINT((3.310578911349971,-3.9389857644167225,-1.365618167585672));
#194=IFCDIRECTION((0.,0.,1.));
#195=IFCDIRECTION((-0.8676508427879507,-0.49717402889668216,0.));
#196=IFCAXIS2PLACEMENT3D(#193,#194,#195);
#197=IFCLOCALPLACEMENT(#29,#196);
#198=IFCCARTESIANPOINT((0.519539676,0.));
#199=IFCAXIS2PLACEMENT2D(#198,$);
#200=IFCRECTANGLEPROFILEDEF(.AREA.,$,#199,1.039079352,0.072625853);
#201=IFCCARTESIANPOINT((0.,0.,0.));
#202=IFCAXIS2PLACEMENT3D(#201,$,$);
#203=IFCDIRECTION((0.,0.,1.));
#204=IFCEXTRUDEDAREASOLID(#200,#202,#203,1.9961326232348355);
#205=IFCSHAPEREPRESENTATION(#12,'Body','SweptSolid',(#204));
#206=IFCCARTESIANPOINT((0.,0.));
#207=IFCCARTESIANPOINT((1.039079352,0.));
#208=IFCPOLYLINE((#206,#207));
#209=IFCSHAPEREPRESENTATION(#13,'Axis','Curve2D',(#208));
#210=IFCPRODUCTDEFINITIONSHAPE($,$,(#205,#209));
#212=IFCRELCONTAINEDINSPATIALSTRUCTURE('1jsqo4W2XAmeLGbi1qQye1',#5,$,$,(#211),#26);
#213=IFCCARTESIANPOINT((0.5847639946820209,-6.559753091589863,-1.365618167585672));
#214=IFCDIRECTION((0.,0.,1.));
#215=IFCDIRECTION((0.6164764910530819,0.7873733142410144,0.));
#216=IFCAXIS2PLACEMENT3D(#213,#214,#215);
#217=IFCLOCALPLACEMENT(#29,#216);
#218=IFCCARTESIANPOINT((0.265978863,0.));
#219=IFCAXIS2PLACEMENT2D(#218,$);
#220=IFCRECTANGLEPROFILEDEF(.AREA.,$,#219,0.531957726,0.2);
#221=IFCCARTESIANPOINT((0.,0.,0.));
#222=IFCAXIS2PLACEMENT3D(#221,$,$);
#223=IFCDIRECTION((0.,0.,1.));
#224=IFCEXTRUDEDAREASOLID(#220,#222,#223,2.307887621241091);
#225=IFCSHAPEREPRESENTATION(#12,'Body','SweptSolid',(#224));
#226=IFCCARTESIANPOINT((0.,0.));
#227=IFCCARTESIANPOINT((0.531957726,0.));
#228=IFCPOLYLINE((#226,#227));
#229=IFCSHAPEREPRESENTATION(#13,'Axis','Curve2D',(#228));
#230=IFCPRODUCTDEFINITIONSHAPE($,$,(#225,#229));
#232=IFCRELCONTAINEDINSPATIALSTRUCTURE('2r48XJf61FG9nJD$0VWA6J',#5,$,$,(#231),#26);
#233=IFCCARTESIANPOINT((-1.4023278654503863,-4.069176580165876,-1.365618167585672));
#234=IFCDIRECTION((0.,0.,1.));
#235=IFCDIRECTION((0.011962063308159111,0.999928451961145,0.));
#236=IFCAXIS2PLACEMENT3D(#233,#234,#235);
#237=IFCLOCALPLACEMENT(#29,#236);
#238=IFCCARTESIANPOINT((0.438415152,0.));
#239=IFCAXIS2PLACEMENT2D(#238,$);
#240=IFCRECTANGLEPROFILEDEF(.AREA.,$,#239,0.876830304,0.2);
#241=IFCCARTESIANPOINT((0.,0.,0.));
#242=IFCAXIS2PLACEMENT3D(#241,$,$);
#243=IFCDIRECTION((0.,0.,1.));
#244=IFCEXTRUDEDAREASOLID(#240,#242,#243,1.7722397983644291);
#245=IFCSHAPEREPRESENTATION(#12,'Body','SweptSolid',(#244));
#246=IFCCARTESIANPOINT((0.,0.));
#247=IFCCARTESIANPOINT((0.876830304,0.));
#248=IFCPOLYLINE((#246,#247));
#249=IFCSHAPEREPRESENTATION(#13,'Axis','Curve2D',(#248));
#250=IFCPRODUCTDEFINITIONSHAPE($,$,(#245,#249));
#252=IFCRELCONTAINEDINSPATIALSTRUCTURE('2HyByfdCbABQBUCnUgJjQ$',#5,$,$,(#251),#26);
#253=IFCCARTESIANPOINT((1.4364269416584148,-5.284067646816211,-1.2690636603039676));
#254=IFCDIRECTION((0.,0.,1.));
#255=IFCDIRECTION((-0.7741893833970297,0.6329540256885384,0.));
#256=IFCAXIS2PLACEMENT3D(#253,#254,#255);
#257=IFCLOCALPLACEMENT(#29,#256);
#258=IFCCARTESIANPOINT((0.258190496,0.));
#259=IFCAXIS2PLACEMENT2D(#258,$);
#260=IFCRECTANGLEPROFILEDEF(.AREA.,$,#259,0.516380992,0.2);
#261=IFCCARTESIANPOINT((0.,0.,0.));
#262=IFCAXIS2PLACEMENT3D(#261,$,$);
#263=IFCDIRECTION((0.,0.,1.));
#264=IFCEXTRUDEDAREASOLID(#260,#262,#263,2.181091041938741);
#265=IFCSHAPEREPRESENTATION(#12,'Body','SweptSolid',(#264));
#266=IFCCARTESIANPOINT((0.,0.));
#267=IFCCARTESIANPOINT((0.516380992,0.));
#268=IFCPOLYLINE((#266,#267));
#269=IFCSHAPEREPRESENTATION(#13,'Axis','Curve2D',(#268));
#270=IFCPRODUCTDEFINITIONSHAPE($,$,(#265,#269));
#272=IFCRELCONTAINEDINSPATIALSTRUCTURE('24PgqocJ57LPmdk0KJXqX$',#5,$,$,(#271),#26);
#273=IFCCARTESIANPOINT((-0.3158227570069796,-5.167573521851743,-1.365618167585672));
#274=IFCDIRECTION((0.,0.,1.));
#275=IFCDIRECTION((0.6318271026911559,0.775109355062174,0.));
#276=IFCAXIS2PLACEMENT3D(#273,#274,#275);
#277=IFCLOCALPLACEMENT(#29,#276);
#278=IFCCARTESIANPOINT((0.315004548,0.));
#279=IFCAXIS2PLACEMENT2D(#278,$);
#280=IFCRECTANGLEPROFILEDEF(.AREA.,$,#279,0.630009095,0.2);
#281=IFCCARTESIANPOINT((0.,0.,0.));
#282=IFCAXIS2PLACEMENT3D(#281,$,$);
#283=IFCDIRECTION((0.,0.,1.));
#284=IFCEXTRUDEDAREASOLID(#280,#282,#283,1.9621077781045682);
#285=IFCSHAPEREPRESENTATION(#12,'Body','SweptSolid',(#284));
#286=IFCCARTESIANPOINT((0.,0.));
#287=IFCCARTESIANPOINT((0.630009095,0.));
#288=IFCPOLYLINE((#286,#287));
#289=IFCSHAPEREPRESENTATION(#13,'Axis','Curve2D',(#288));
#290=IFCPRODUCTDEFINITIONSHAPE($,$,(#285,#289));
#292=IFCRELCONTAINEDINSPATIALSTRUCTURE('1TvPPv0XT8w9XQBDjMxy$M',#5,$,$,(#291),#26);
#293=IFCCARTESIANPOINT((-0.19205065587451786,-4.558200678996,-1.0581527491399423));
#294=IFCDIRECTION((0.,0.,1.));
#295=IFCDIRECTION((-0.7837211026463976,0.6211128989698368,0.));
#296=IFCAXIS2PLACEMENT3D(#293,#294,#295);
#297=IFCLOCALPLACEMENT(#29,#296);
#298=IFCCARTESIANPOINT((0.262807453,0.));
#299=IFCAXIS2PLACEMENT2D(#298,$);
#300=IFCRECTANGLEPROFILEDEF(.AREA.,$,#299,0.525614905,0.2);
#301=IFCCARTESIANPOINT((0.,0.,0.));
#302=IFCAXIS2PLACEMENT3D(#301,$,$);
#303=IFCDIRECTION((0.,0.,1.));
#304=IFCEXTRUDEDAREASOLID(#300,#302,#303,1.3719476539143125);
#305=IFCSHAPEREPRESENTATION(#12,'Body','SweptSolid',(#304));
#306=IFCCARTESIANPOINT((0.,0.));
#307=IFCCARTESIANPOINT((0.525614905,0.));
#308=IFCPOLYLINE((#306,#307));
#309=IFCSHAPEREPRESENTATION(#13,'Axis','Curve2D',(#308));
#310=IFCPRODUCTDEFINITIONSHAPE($,$,(#305,#309));
#312=IFCRELCONTAINEDINSPATIALSTRUCTURE('0a2gKj7S1A_BdU4vfmzEND',#5,$,$,(#311),#26);
#313=IFCCARTESIANPOINT((3.2587414619206374,-7.020849384264189,-0.5298176728608559));
#314=IFCDIRECTION((0.,0.,1.));
#315=IFCDIRECTION((-0.9843717992740499,0.17610269956468486,0.));
#316=IFCAXIS2PLACEMENT3D(#313,#314,#315);
#317=IFCLOCALPLACEMENT(#29,#316);
#318=IFCCARTESIANPOINT((0.352881378,0.));
#319=IFCAXIS2PLACEMENT2D(#318,$);
#320=IFCRECTANGLEPROFILEDEF(.AREA.,$,#319,0.705762756,0.2);
#321=IFCCARTESIANPOINT((0.,0.,0.));
#322=IFCAXIS2PLACEMENT3D(#321,$,$);
#323=IFCDIRECTION((0.,0.,1.));
#324=IFCEXTRUDEDAREASOLID(#320,#322,#323,1.124153838805955);
#325=IFCSHAPEREPRESENTATION(#12,'Body','SweptSolid',(#324));
#326=IFCCARTESIANPOINT((0.,0.));
#327=IFCCARTESIANPOINT((0.705762756,0.));
#328=IFCPOLYLINE((#326,#327));
#329=IFCSHAPEREPRESENTATION(#13,'Axis','Curve2D',(#328));
#330=IFCPRODUCTDEFINITIONSHAPE($,$,(#325,#329));
#332=IFCRELCONTAINEDINSPATIALSTRUCTURE('1Yy9xemnbA_8nkCtoC8Qqu',#5,$,$,(#331),#26);
#333=IFCCARTESIANPOINT((0.,0.,-1.565618167585672));
#334=IFCAXIS2PLACEMENT3D(#333,$,$);
#335=IFCLOCALPLACEMENT(#29,#334);
#336=IFCCARTESIANPOINT((-4.38597943703526,-2.499950044787995));
#337=IFCCARTESIANPOINT((3.234376140263885,-8.744855091929274));
#338=IFCCARTESIANPOINT((7.665308732699991,-3.3380036420831525));
#339=IFCCARTESIANPOINT((0.04495315540084599,2.906901405058127));
#340=IFCCARTESIANPOINT((-4.38597943703526,-2.499950044787995));
#341=IFCPOLYLINE((#336,#337,#338,#339,#340));
#342=IFCARBITRARYCLOSEDPROFILEDEF(.AREA.,$,#341);
#343=IFCCARTESIANPOINT((0.,0.,0.));
#344=IFCAXIS2PLACEMENT3D(#343,$,$);
#345=IFCDIRECTION((0.,0.,1.));
#346=IFCEXTRUDEDAREASOLID(#342,#344,#345,0.2);
#347=IFCSHAPEREPRESENTATION(#12,'Body','SweptSolid',(#346));
#348=IFCPRODUCTDEFINITIONSHAPE($,$,(#347));
#350=IFCRELCONTAINEDINSPATIALSTRUCTURE('00v4j5rZfBvQcTt4uf5Dhg',#5,$,$,(#349),#26);
#351=IFCCARTESIANPOINT((0.,0.,1.1655834495246475));
#352=IFCAXIS2PLACEMENT3D(#351,$,$);
#353=IFCLOCALPLACEMENT(#29,#352);
#354=IFCCARTESIANPOINT((-0.09284054058219482,2.865741853296372));
#355=IFCCARTESIANPOINT((-3.2608442375045277,-1.2665085723978116));
#356=IFCCARTESIANPOINT((1.6688691687746182,-5.045914564172918));
#357=IFCCARTESIANPOINT((4.83687286569695,-0.913664138478735));
#358=IFCCARTESIANPOINT((-0.09284054058219482,2.865741853296372));
#359=IFCPOLYLINE((#354,#355,#356,#357,#358));
#360=IFCARBITRARYCLOSEDPROFILEDEF(.AREA.,$,#359);
#361=IFCCARTESIANPOINT((0.,0.,0.));
#362=IFCAXIS2PLACEMENT3D(#361,$,$);
#363=IFCDIRECTION((0.,0.,1.));
#364=IFCEXTRUDEDAREASOLID(#360,#362,#363,0.2);
#365=IFCSHAPEREPRESENTATION(#12,'Body','SweptSolid',(#364));
#366=IFCPRODUCTDEFINITIONSHAPE($,$,(#365));
#368=IFCRELCONTAINEDINSPATIALSTRUCTURE('1IYBdgi_j3HgLBZOuyrS1O',#5,$,$,(#367),#26);
#369=IFCCARTESIANPOINT((0.,0.,1.1729421646578053));
#370=IFCAXIS2PLACEMENT3D(#369,$,$);
#371=IFCLOCALPLACEMENT(#29,#370);
#372=IFCCARTESIANPOINT((4.939466042329826,-1.1852945934900019));
#373=IFCCARTESIANPOINT((2.43932047364774,-4.317384159722736));
#374=IFCCARTESIANPOINT((5.100402553954375,-6.441305614485698));
#375=IFCCARTESIANPOINT((7.600548122636459,-3.309216048252963));
#376=IFCCARTESIANPOINT((4.939466042329826,-1.1852945934900019));
#377=IFCPOLYLINE((#372,#373,#374,#375,#376));
#378=IFCARBITRARYCLOSEDPROFILEDEF(.AREA.,$,#377);
#379=IFCCARTESIANPOINT((0.,0.,0.));
#380=IFCAXIS2PLACEMENT3D(#379,$,$);
#381=IFCDIRECTION((0.,0.,1.));
#382=IFCEXTRUDEDAREASOLID(#378,#380,#381,0.2);
#383=IFCSHAPEREPRESENTATION(#12,'Body','SweptSolid',(#382));
#384=IFCPRODUCTDEFINITIONSHAPE($,$,(#383));
#386=IFCRELCONTAINEDINSPATIALSTRUCTURE('0PDgTtu_v8lxpeJdM0kOtV',#5,$,$,(#385),#26);
#387=IFCCARTESIANPOINT((0.,0.,0.913013197930634));
#388=IFCAXIS2PLACEMENT3D(#387,$,$);
#389=IFCLOCALPLACEMENT(#29,#388);
#390=IFCCARTESIANPOINT((3.4289748798950628,-5.620904934219004));
#391=IFCCARTESIANPOINT((1.9024211094963919,-7.499664222798306));
#392=IFCCARTESIANPOINT((3.2977263461879076,-8.633417950035076));
#393=IFCCARTESIANPOINT((4.8242801165865785,-6.754658661455775));
#394=IFCCARTESIANPOINT((3.4289748798950628,-5.620904934219004));
#395=IFCPOLYLINE((#390,#391,#392,#393,#394));
#396=IFCARBITRARYCLOSEDPROFILEDEF(.AREA.,$,#395);
#397=IFCCARTESIANPOINT((0.,0.,0.));
#398=IFCAXIS2PLACEMENT3D(#397,$,$);
#399=IFCDIRECTION((0.,0.,1.));
#400=IFCEXTRUDEDAREASOLID(#396,#398,#399,0.2);
#401=IFCSHAPEREPRESENTATION(#12,'Body','SweptSolid',(#400));
#402=IFCPRODUCTDEFINITIONSHAPE($,$,(#401));
#404=IFCRELCONTAINEDINSPATIALSTRUCTURE('3hoz7oLYzCp9CCidncEqv5',#5,$,$,(#403),#26);
#405=IFCCARTESIANPOINT((0.,0.,0.9568714829117471));
#406=IFCAXIS2PLACEMENT3D(#405,$,$);
#407=IFCLOCALPLACEMENT(#29,#406);
#408=IFCCARTESIANPOINT((-4.0703208956991,-2.2862842117385496));
#409=IFCCARTESIANPOINT((-1.558436885862379,-4.34910553064318));
#410=IFCCARTESIANPOINT((-0.6984290115636256,-3.3018786565312546));
#411=IFCCARTESIANPOINT((-3.2103130214003475,-1.2390573376266243));
#412=IFCCARTESIANPOINT((-4.0703208956991,-2.2862842117385496));
#413=IFCPOLYLINE((#408,#409,#410,#411,#412));
#414=IFCARBITRARYCLOSEDPROFILEDEF(.AREA.,$,#413);
#415=IFCCARTESIANPOINT((0.,0.,0.));
#416=IFCAXIS2PLACEMENT3D(#415,$,$);
#417=IFCDIRECTION((0.,0.,1.));
#418=IFCEXTRUDEDAREASOLID(#414,#416,#417,0.2);
#419=IFCSHAPEREPRESENTATION(#12,'Body','SweptSolid',(#418));
#420=IFCPRODUCTDEFINITIONSHAPE($,$,(#419));
#422=IFCRELCONTAINEDINSPATIALSTRUCTURE('2MJWuN$pf24u44SSvrO0lB',#5,$,$,(#421),#26);
#423=IFCCARTESIANPOINT((0.,0.,0.9422694536554193));
#424=IFCAXIS2PLACEMENT3D(#423,$,$);
#425=IFCLOCALPLACEMENT(#29,#424);
#426=IFCCARTESIANPOINT((0.5729010782263897,-6.4474431066897235));
#427=IFCCARTESIANPOINT((1.8172740767484763,-7.435559733714872));
#428=IFCCARTESIANPOINT((3.4923080311620023,-5.326124395184226));
#429=IFCCARTESIANPOINT((2.2479350326399157,-4.338007768159077));
#430=IFCCARTESIANPOINT((0.5729010782263897,-6.4474431066897235));
#431=IFCPOLYLINE((#426,#427,#428,#429,#430));
#432=IFCARBITRARYCLOSEDPROFILEDEF(.AREA.,$,#431);
#433=IFCCARTESIANPOINT((0.,0.,0.));
#434=IFCAXIS2PLACEMENT3D(#433,$,$);
#435=IFCDIRECTION((0.,0.,1.));
#436=IFCEXTRUDEDAREASOLID(#432,#434,#435,0.2);
#437=IFCSHAPEREPRESENTATION(#12,'Body','SweptSolid',(#436));
#438=IFCPRODUCTDEFINITIONSHAPE($,$,(#437));
#440=IFCRELCONTAINEDINSPATIALSTRUCTURE('0_axis49X48BhM8D7hrWZm',#5,$,$,(#439),#26);
#441=IFCCARTESIANPOINT((0.,0.,-1.536254893106957));
#442=IFCAXIS2PLACEMENT3D(#441,$,$);
#443=IFCLOCALPLACEMENT(#29,#442);
#444=IFCCARTESIANPOINT((-0.78196002976255,1.5056917041830182));
#445=IFCCARTESIANPOINT((1.3513824969709196,0.16799170571563327));
#446=IFCCARTESIANPOINT((2.0135010073639688,1.223904977482543));
#447=IFCCARTESIANPOINT((-0.11984151936950083,2.561604975949928));
#448=IFCCARTESIANPOINT((-0.78196002976255,1.5056917041830182));
#449=IFCPOLYLINE((#444,#445,#446,#447,#448));
#450=IFCARBITRARYCLOSEDPROFILEDEF(.AREA.,$,#449);
#451=IFCCARTESIANPOINT((0.,0.,0.));
#452=IFCAXIS2PLACEMENT3D(#451,$,$);
#453=IFCDIRECTION((0.,0.,1.));
#454=IFCEXTRUDEDAREASOLID(#450,#452,#453,0.2);
#455=IFCSHAPEREPRESENTATION(#12,'Body','SweptSolid',(#454));
#456=IFCPRODUCTDEFINITIONSHAPE($,$,(#455));
#458=IFCRELCONTAINEDINSPATIALSTRUCTURE('0ZePxCrFr3xOs1r4NUQOew',#5,$,$,(#457),#26);
#51=IFCWALL('2XrCkz$Rv0xfUt$AZ2l1KC',#5,'Scan wall-0',$,$,#37,#50,$,.NOTDEFINED.);
#71=IFCWALL('08JXndKKn4OA3e2jlkJ4b1',#5,'Scan wall-2',$,$,#57,#70,$,.NOTDEFINED.);
#91=IFCWALL('2KMzNPt8H1ruugCH5BfQI7',#5,'Scan wall-3',$,$,#77,#90,$,.NOTDEFINED.);
#111=IFCWALL('1Rly8xU1576RMX5Qv9UHmO',#5,'Scan wall-5',$,$,#97,#110,$,.NOTDEFINED.);
#131=IFCWALL('3qsmkzzxXDcOMDBUmwgjQ3',#5,'Scan wall-6',$,$,#117,#130,$,.NOTDEFINED.);
#151=IFCWALL('16a9CUlOr0KQunnMw2Xmk0',#5,'Scan wall-8',$,$,#137,#150,$,.NOTDEFINED.);
#171=IFCWALL('0KlXEENvX7JBGPCPlM4FbQ',#5,'Scan wall-11',$,$,#157,#170,$,.NOTDEFINED.);
#191=IFCWALL('2Uao7powD0x9raj8bvW8OU',#5,'Scan wall-12',$,$,#177,#190,$,.NOTDEFINED.);
#211=IFCWALL('3hkGOg$0f7guWKixr85g8p',#5,'Scan wall-13',$,$,#197,#210,$,.NOTDEFINED.);
#231=IFCWALL('0Q9DC39cDBXgv$mkqcxCz$',#5,'Scan wall-19',$,$,#217,#230,$,.NOTDEFINED.);
#251=IFCWALL('1DsZ5wTi57Rg5naUjwDRU4',#5,'Scan wall-20',$,$,#237,#250,$,.NOTDEFINED.);
#271=IFCWALL('15AHl3w_nBeB$P7X0B95$t',#5,'Scan wall-23',$,$,#257,#270,$,.NOTDEFINED.);
#291=IFCWALL('0r5Vp6JavBffqeSTz0MC9T',#5,'Scan wall-24',$,$,#277,#290,$,.NOTDEFINED.);
#311=IFCWALL('2RK_bcsqz86eAoH1cA2jLW',#5,'Scan wall-28',$,$,#297,#310,$,.NOTDEFINED.);
#331=IFCWALL('3D4G7_hKX3e8ICQ$c54hCJ',#5,'Scan wall-29',$,$,#317,#330,$,.NOTDEFINED.);
#349=IFCSLAB('3ido3fZ1fEwQSA5R986BXe',#5,'Scan slab-0',$,$,#335,#348,$,.FLOOR.);
#367=IFCSLAB('1VCfeXF192H8FiPAD6SZ$T',#5,'Scan slab-1',$,$,#353,#366,$,.FLOOR.);
#385=IFCSLAB('27WCRSycPAAPcNB4vmP_XN',#5,'Scan slab-2',$,$,#371,#384,$,.FLOOR.);
#403=IFCSLAB('1yoUrbWKTAt93HVMWj7haw',#5,'Scan slab-3',$,$,#389,#402,$,.FLOOR.);
#421=IFCSLAB('2wszjpnzrAOQxkp1paZZjQ',#5,'Scan slab-4',$,$,#407,#420,$,.FLOOR.);
#439=IFCSLAB('1p9vJhW8n51uwk_3J_zF1w',#5,'Scan slab-5',$,$,#425,#438,$,.FLOOR.);
#457=IFCSLAB('0hL$7FeenAFwjsxDVCfMkr',#5,'Scan slab-6',$,$,#443,#456,$,.FLOOR.);
ENDSEC;
END-ISO-10303-21;
