ISO-10303-21;
HEADER;
FILE_DESCRIPTION(('Exported from ifc-lite with 442 modifications','Re-exported by ifc-lite, 649 modifications'),'2;1');
FILE_NAME('export.ifc','2026-10-05T16:22:42',(''),(''),'ifc-lite','ifc-lite','');
FILE_SCHEMA(('IFC4'));
ENDSEC;
DATA;
#1=IFCPERSON($,$,'',$,$,$,$,$);
#2=IFCORGANIZATION($,'ifc-lite',$,$,$);
#3=IFCPERSONANDORGANIZATION(#1,#2,$);
#4=IFCAPPLICATION(#2,'1.0','ifc-lite','ifc-lite');
#5=IFCOWNERHISTORY(#3,#4,$,.NOCHANGE.,$,$,$,1791217336);
#6=IFCCARTESIANPOINT((0.,0.,0.));
#7=IFCDIRECTION((0.,0.,1.));
#8=IFCDIRECTION((1.,0.,0.));
#9=IFCAXIS2PLACEMENT3D(#6,#7,#8);
#10=IFCLOCALPLACEMENT($,#9);
#11=IFCGEOMETRICREPRESENTATIONCONTEXT($,'Model',3,1.0E-5,#9,$);
#12=IFCGEOMETRICREPRESENTATIONSUBCONTEXT($,'Body',*,*,*,*,#11,$,.MODEL_VIEW.,$);
#13=IFCGEOMETRICREPRESENTATIONSUBCONTEXT($,'Axis',*,*,*,*,#11,$,.GRAPH_VIEW.,$);
#14=IFCDIMENSIONALEXPONENTS(0,0,0,0,0,0,0);
#15=IFCSIUNIT(*,.LENGTHUNIT.,$,.METRE.);
#16=IFCSIUNIT(*,.AREAUNIT.,$,.SQUARE_METRE.);
#17=IFCSIUNIT(*,.VOLUMEUNIT.,$,.CUBIC_METRE.);
#18=IFCSIUNIT(*,.PLANEANGLEUNIT.,$,.RADIAN.);
#19=IFCUNITASSIGNMENT((#15,#16,#17,#18));
#20=IFCCOLOURRGB($,0.75,0.73,0.68);
#21=IFCSURFACESTYLERENDERING(#20,0.,$,$,$,$,IFCNORMALISEDRATIOMEASURE(0.5),IFCSPECULAREXPONENT(64.),.NOTDEFINED.);
#22=IFCSURFACESTYLE('Default',.BOTH.,(#21));
#23=IFCPROJECT('1gd1z_7F9CqBp7BfbLYsV8',#5,'Scan to BIM',$,$,$,$,(#11),#19);
#24=IFCSITE('2kiVCNaRbA7RPyDCK2fgMs',#5,'Site',$,$,#10,$,$,.ELEMENT.,$,$,$,$,$);
#25=IFCBUILDING('3Pjhjv0B5BWAGe6PvsQNmR',#5,'Building',$,$,#10,$,$,.ELEMENT.,$,$,$);
#26=IFCBUILDINGSTOREY('0pcDOiEf976ARqWnA7wbR1',#5,'Level 1',$,$,#29,$,$,.ELEMENT.,0.);
#27=IFCCARTESIANPOINT((0.,0.,0.));
#28=IFCAXIS2PLACEMENT3D(#27,$,$);
#29=IFCLOCALPLACEMENT(#10,#28);
#30=IFCRELAGGREGATES('2XC_PUtD54IgOgVBMe3_d2',#5,$,$,#23,(#24));
#31=IFCRELAGGREGATES('0Ft8Uw8u12_gykwlXz6kXk',#5,$,$,#24,(#25));
#32=IFCRELAGGREGATES('1nhtv5iCz1xPDZVudRT1Hx',#5,$,$,#25,(#26));
#475=IFCPROPERTYSINGLEVALUE('SourceScan',$,IFCLABEL('Apartment.e57'),$);
#476=IFCPROPERTYSINGLEVALUE('DetectionId',$,IFCIDENTIFIER('wall-0'),$);
#477=IFCPROPERTYSINGLEVALUE('Basis',$,IFCLABEL('pairedFaces'),$);
#478=IFCPROPERTYSINGLEVALUE('SourceDetections',$,IFCLABEL('plane:5 plane:6'),$);
#479=IFCPROPERTYSINGLEVALUE('Confidence',$,IFCREAL(0.445),$);
#480=IFCPROPERTYSINGLEVALUE('FitRmsMetres',$,IFCREAL(0.006850699814616371),$);
#481=IFCPROPERTYSINGLEVALUE('InlierPoints',$,IFCINTEGER(89005),$);
#482=IFCPROPERTYSET('2XKHANsk50shH0dqqGJmSX',#5,'IfcLite_ScanDetection',$,(#475,#476,#477,#478,#479,#480,#481));
#483=IFCRELDEFINESBYPROPERTIES('2$u7DUI4f1dQeSexYBCOOU',#5,$,$,(#51),#482);
#484=IFCPROPERTYSINGLEVALUE('SourceScan',$,IFCLABEL('Apartment.e57'),$);
#485=IFCPROPERTYSINGLEVALUE('DetectionId',$,IFCIDENTIFIER('wall-2'),$);
#486=IFCPROPERTYSINGLEVALUE('Basis',$,IFCLABEL('pairedFaces'),$);
#487=IFCPROPERTYSINGLEVALUE('SourceDetections',$,IFCLABEL('plane:7 plane:11'),$);
#488=IFCPROPERTYSINGLEVALUE('Confidence',$,IFCREAL(0.395),$);
#489=IFCPROPERTYSINGLEVALUE('FitRmsMetres',$,IFCREAL(0.006477224099691825),$);
#490=IFCPROPERTYSINGLEVALUE('InlierPoints',$,IFCINTEGER(59786),$);
#491=IFCPROPERTYSET('3nAD6ieI59AuT5RLlfhLes',#5,'IfcLite_ScanDetection',$,(#484,#485,#486,#487,#488,#489,#490));
#492=IFCRELDEFINESBYPROPERTIES('2mBTHE0lr7$xiJjjx8xp1s',#5,$,$,(#71),#491);
#493=IFCPROPERTYSINGLEVALUE('SourceScan',$,IFCLABEL('Apartment.e57'),$);
#494=IFCPROPERTYSINGLEVALUE('DetectionId',$,IFCIDENTIFIER('wall-3'),$);
#495=IFCPROPERTYSINGLEVALUE('Basis',$,IFCLABEL('singleFace'),$);
#496=IFCPROPERTYSINGLEVALUE('SourceDetections',$,IFCLABEL('plane:3'),$);
#497=IFCPROPERTYSINGLEVALUE('Confidence',$,IFCREAL(0.488),$);
#498=IFCPROPERTYSINGLEVALUE('FitRmsMetres',$,IFCREAL(0.006042400033515268),$);
#499=IFCPROPERTYSINGLEVALUE('InlierPoints',$,IFCINTEGER(60095),$);
#500=IFCPROPERTYSET('2ZZEtp3g15fOEVaWvJ4hyf',#5,'IfcLite_ScanDetection',$,(#493,#494,#495,#496,#497,#498,#499));
#501=IFCRELDEFINESBYPROPERTIES('0diNAQE4LEFfyenoJtNVi4',#5,$,$,(#91),#500);
#502=IFCPROPERTYSINGLEVALUE('SourceScan',$,IFCLABEL('Apartment.e57'),$);
#503=IFCPROPERTYSINGLEVALUE('DetectionId',$,IFCIDENTIFIER('wall-5'),$);
#504=IFCPROPERTYSINGLEVALUE('Basis',$,IFCLABEL('pairedFaces'),$);
#505=IFCPROPERTYSINGLEVALUE('SourceDetections',$,IFCLABEL('plane:12 plane:17'),$);
#506=IFCPROPERTYSINGLEVALUE('Confidence',$,IFCREAL(0.356),$);
#507=IFCPROPERTYSINGLEVALUE('FitRmsMetres',$,IFCREAL(0.007174767794573039),$);
#508=IFCPROPERTYSINGLEVALUE('InlierPoints',$,IFCINTEGER(49194),$);
#509=IFCPROPERTYSET('270PLSokb74xcdzr_7$6uV',#5,'IfcLite_ScanDetection',$,(#502,#503,#504,#505,#506,#507,#508));
#510=IFCRELDEFINESBYPROPERTIES('15rTJ6EG18zxHGb7GobN68',#5,$,$,(#111),#509);
#511=IFCPROPERTYSINGLEVALUE('SourceScan',$,IFCLABEL('Apartment.e57'),$);
#512=IFCPROPERTYSINGLEVALUE('DetectionId',$,IFCIDENTIFIER('wall-6'),$);
#513=IFCPROPERTYSINGLEVALUE('Basis',$,IFCLABEL('singleFace'),$);
#514=IFCPROPERTYSINGLEVALUE('SourceDetections',$,IFCLABEL('plane:9'),$);
#515=IFCPROPERTYSINGLEVALUE('Confidence',$,IFCREAL(0.389),$);
#516=IFCPROPERTYSINGLEVALUE('FitRmsMetres',$,IFCREAL(0.007597678780774089),$);
#517=IFCPROPERTYSINGLEVALUE('InlierPoints',$,IFCINTEGER(48547),$);
#518=IFCPROPERTYSET('3tB3aNU3n7xf0Jy_P5O_Vm',#5,'IfcLite_ScanDetection',$,(#511,#512,#513,#514,#515,#516,#517));
#519=IFCRELDEFINESBYPROPERTIES('0WnjAyWFj68ebQulN4jDZX',#5,$,$,(#131),#518);
#520=IFCPROPERTYSINGLEVALUE('SourceScan',$,IFCLABEL('Apartment.e57'),$);
#521=IFCPROPERTYSINGLEVALUE('DetectionId',$,IFCIDENTIFIER('wall-8'),$);
#522=IFCPROPERTYSINGLEVALUE('Basis',$,IFCLABEL('singleFace'),$);
#523=IFCPROPERTYSINGLEVALUE('SourceDetections',$,IFCLABEL('plane:15'),$);
#524=IFCPROPERTYSINGLEVALUE('Confidence',$,IFCREAL(0.392),$);
#525=IFCPROPERTYSINGLEVALUE('FitRmsMetres',$,IFCREAL(0.008247466472784706),$);
#526=IFCPROPERTYSINGLEVALUE('InlierPoints',$,IFCINTEGER(23264),$);
#527=IFCPROPERTYSET('3acZ7leDD6JfeP9QM2Ephz',#5,'IfcLite_ScanDetection',$,(#520,#521,#522,#523,#524,#525,#526));
#528=IFCRELDEFINESBYPROPERTIES('1CtJAxmUb4awLk6Qp3IQQg',#5,$,$,(#151),#527);
#529=IFCPROPERTYSINGLEVALUE('SourceScan',$,IFCLABEL('Apartment.e57'),$);
#530=IFCPROPERTYSINGLEVALUE('DetectionId',$,IFCIDENTIFIER('wall-10'),$);
#531=IFCPROPERTYSINGLEVALUE('Basis',$,IFCLABEL('singleFace'),$);
#532=IFCPROPERTYSINGLEVALUE('SourceDetections',$,IFCLABEL('plane:18'),$);
#533=IFCPROPERTYSINGLEVALUE('Confidence',$,IFCREAL(0.5),$);
#534=IFCPROPERTYSINGLEVALUE('FitRmsMetres',$,IFCREAL(0.00559864070611881),$);
#535=IFCPROPERTYSINGLEVALUE('InlierPoints',$,IFCINTEGER(22509),$);
#536=IFCPROPERTYSET('1xkhe0R9H8x8rCMMZ4Ls5a',#5,'IfcLite_ScanDetection',$,(#529,#530,#531,#532,#533,#534,#535));
#537=IFCRELDEFINESBYPROPERTIES('1ITH8z0O986OmNnVHq62nX',#5,$,$,(#171),#536);
#538=IFCPROPERTYSINGLEVALUE('SourceScan',$,IFCLABEL('Apartment.e57'),$);
#539=IFCPROPERTYSINGLEVALUE('DetectionId',$,IFCIDENTIFIER('wall-11'),$);
#540=IFCPROPERTYSINGLEVALUE('Basis',$,IFCLABEL('singleFace'),$);
#541=IFCPROPERTYSINGLEVALUE('SourceDetections',$,IFCLABEL('plane:19'),$);
#542=IFCPROPERTYSINGLEVALUE('Confidence',$,IFCREAL(0.416),$);
#543=IFCPROPERTYSINGLEVALUE('FitRmsMetres',$,IFCREAL(0.007312070246343299),$);
#544=IFCPROPERTYSINGLEVALUE('InlierPoints',$,IFCINTEGER(17128),$);
#545=IFCPROPERTYSET('1MfSVXR2b47QZ_dheJjM$W',#5,'IfcLite_ScanDetection',$,(#538,#539,#540,#541,#542,#543,#544));
#546=IFCRELDEFINESBYPROPERTIES('0TyMSqYZXDFe2FvDGf29oQ',#5,$,$,(#191),#545);
#547=IFCPROPERTYSINGLEVALUE('SourceScan',$,IFCLABEL('Apartment.e57'),$);
#548=IFCPROPERTYSINGLEVALUE('DetectionId',$,IFCIDENTIFIER('wall-12'),$);
#549=IFCPROPERTYSINGLEVALUE('Basis',$,IFCLABEL('pairedFaces'),$);
#550=IFCPROPERTYSINGLEVALUE('SourceDetections',$,IFCLABEL('plane:29 plane:36'),$);
#551=IFCPROPERTYSINGLEVALUE('Confidence',$,IFCREAL(0.432),$);
#552=IFCPROPERTYSINGLEVALUE('FitRmsMetres',$,IFCREAL(0.005999922200397131),$);
#553=IFCPROPERTYSINGLEVALUE('InlierPoints',$,IFCINTEGER(10310),$);
#554=IFCPROPERTYSET('2Milb95YvDnum5qdUhIgE7',#5,'IfcLite_ScanDetection',$,(#547,#548,#549,#550,#551,#552,#553));
#555=IFCRELDEFINESBYPROPERTIES('1FkMJd_rbA6PoRnpZKtOWs',#5,$,$,(#211),#554);
#556=IFCPROPERTYSINGLEVALUE('SourceScan',$,IFCLABEL('Apartment.e57'),$);
#557=IFCPROPERTYSINGLEVALUE('DetectionId',$,IFCIDENTIFIER('wall-19'),$);
#558=IFCPROPERTYSINGLEVALUE('Basis',$,IFCLABEL('singleFace'),$);
#559=IFCPROPERTYSINGLEVALUE('SourceDetections',$,IFCLABEL('plane:34'),$);
#560=IFCPROPERTYSINGLEVALUE('Confidence',$,IFCREAL(0.371),$);
#561=IFCPROPERTYSINGLEVALUE('FitRmsMetres',$,IFCREAL(0.008589289898670043),$);
#562=IFCPROPERTYSINGLEVALUE('InlierPoints',$,IFCINTEGER(10131),$);
#563=IFCPROPERTYSET('3VF3TBO_T1xuEZ5xR3YA6K',#5,'IfcLite_ScanDetection',$,(#556,#557,#558,#559,#560,#561,#562));
#564=IFCRELDEFINESBYPROPERTIES('0z5BA7IsHB1hWYPkJMPrGD',#5,$,$,(#231),#563);
#565=IFCPROPERTYSINGLEVALUE('SourceScan',$,IFCLABEL('Apartment.e57'),$);
#566=IFCPROPERTYSINGLEVALUE('DetectionId',$,IFCIDENTIFIER('wall-21'),$);
#567=IFCPROPERTYSINGLEVALUE('Basis',$,IFCLABEL('singleFace'),$);
#568=IFCPROPERTYSINGLEVALUE('SourceDetections',$,IFCLABEL('plane:38'),$);
#569=IFCPROPERTYSINGLEVALUE('Confidence',$,IFCREAL(0.444),$);
#570=IFCPROPERTYSINGLEVALUE('FitRmsMetres',$,IFCREAL(0.004150024335553552),$);
#571=IFCPROPERTYSINGLEVALUE('InlierPoints',$,IFCINTEGER(2541),$);
#572=IFCPROPERTYSET('2ZLXphuxf3zfLAvu65uCpD',#5,'IfcLite_ScanDetection',$,(#565,#566,#567,#568,#569,#570,#571));
#573=IFCRELDEFINESBYPROPERTIES('3QZDFnMn5DOOLr6y8Q8zQS',#5,$,$,(#251),#572);
#574=IFCPROPERTYSINGLEVALUE('SourceScan',$,IFCLABEL('Apartment.e57'),$);
#575=IFCPROPERTYSINGLEVALUE('DetectionId',$,IFCIDENTIFIER('wall-22'),$);
#576=IFCPROPERTYSINGLEVALUE('Basis',$,IFCLABEL('singleFace'),$);
#577=IFCPROPERTYSINGLEVALUE('SourceDetections',$,IFCLABEL('plane:39'),$);
#578=IFCPROPERTYSINGLEVALUE('Confidence',$,IFCREAL(0.32),$);
#579=IFCPROPERTYSINGLEVALUE('FitRmsMetres',$,IFCREAL(0.005478711228332186),$);
#580=IFCPROPERTYSINGLEVALUE('InlierPoints',$,IFCINTEGER(4346),$);
#581=IFCPROPERTYSET('1YTiCzb1bD2ABgBoYos3mF',#5,'IfcLite_ScanDetection',$,(#574,#575,#576,#577,#578,#579,#580));
#582=IFCRELDEFINESBYPROPERTIES('25vphY57n2q90mGlLJrheO',#5,$,$,(#271),#581);
#583=IFCPROPERTYSINGLEVALUE('SourceScan',$,IFCLABEL('Apartment.e57'),$);
#584=IFCPROPERTYSINGLEVALUE('DetectionId',$,IFCIDENTIFIER('wall-23'),$);
#585=IFCPROPERTYSINGLEVALUE('Basis',$,IFCLABEL('singleFace'),$);
#586=IFCPROPERTYSINGLEVALUE('SourceDetections',$,IFCLABEL('plane:40'),$);
#587=IFCPROPERTYSINGLEVALUE('Confidence',$,IFCREAL(0.441),$);
#588=IFCPROPERTYSINGLEVALUE('FitRmsMetres',$,IFCREAL(0.005137474081558587),$);
#589=IFCPROPERTYSINGLEVALUE('InlierPoints',$,IFCINTEGER(7099),$);
#590=IFCPROPERTYSET('2rlBsbGx546f$kpMLOGUak',#5,'IfcLite_ScanDetection',$,(#583,#584,#585,#586,#587,#588,#589));
#591=IFCRELDEFINESBYPROPERTIES('3QbkAvdBjA7ujWF2iOHJBL',#5,$,$,(#291),#590);
#592=IFCPROPERTYSINGLEVALUE('SourceScan',$,IFCLABEL('Apartment.e57'),$);
#593=IFCPROPERTYSINGLEVALUE('DetectionId',$,IFCIDENTIFIER('wall-24'),$);
#594=IFCPROPERTYSINGLEVALUE('Basis',$,IFCLABEL('singleFace'),$);
#595=IFCPROPERTYSINGLEVALUE('SourceDetections',$,IFCLABEL('plane:41'),$);
#596=IFCPROPERTYSINGLEVALUE('Confidence',$,IFCREAL(0.546),$);
#597=IFCPROPERTYSINGLEVALUE('FitRmsMetres',$,IFCREAL(0.004610475026041096),$);
#598=IFCPROPERTYSINGLEVALUE('InlierPoints',$,IFCINTEGER(5947),$);
#599=IFCPROPERTYSET('11$ofchrT0VRr7UL8MrDtn',#5,'IfcLite_ScanDetection',$,(#592,#593,#594,#595,#596,#597,#598));
#600=IFCRELDEFINESBYPROPERTIES('1zO7NqOM91oR0mCE78Rjkv',#5,$,$,(#311),#599);
#601=IFCPROPERTYSINGLEVALUE('SourceScan',$,IFCLABEL('Apartment.e57'),$);
#602=IFCPROPERTYSINGLEVALUE('DetectionId',$,IFCIDENTIFIER('wall-26'),$);
#603=IFCPROPERTYSINGLEVALUE('Basis',$,IFCLABEL('singleFace'),$);
#604=IFCPROPERTYSINGLEVALUE('SourceDetections',$,IFCLABEL('plane:47'),$);
#605=IFCPROPERTYSINGLEVALUE('Confidence',$,IFCREAL(0.485),$);
#606=IFCPROPERTYSINGLEVALUE('FitRmsMetres',$,IFCREAL(0.003632998242213948),$);
#607=IFCPROPERTYSINGLEVALUE('InlierPoints',$,IFCINTEGER(3614),$);
#608=IFCPROPERTYSET('2$nDLYJdnCnQ4KnUTpaAJb',#5,'IfcLite_ScanDetection',$,(#601,#602,#603,#604,#605,#606,#607));
#609=IFCRELDEFINESBYPROPERTIES('2wgO2K99TF08JaCUuEmf7_',#5,$,$,(#331),#608);
#610=IFCPROPERTYSINGLEVALUE('SourceScan',$,IFCLABEL('Apartment.e57'),$);
#611=IFCPROPERTYSINGLEVALUE('DetectionId',$,IFCIDENTIFIER('slab-0'),$);
#612=IFCPROPERTYSINGLEVALUE('Basis',$,IFCLABEL('floor'),$);
#613=IFCPROPERTYSINGLEVALUE('SourceDetections',$,IFCLABEL('plane:0'),$);
#614=IFCPROPERTYSINGLEVALUE('Confidence',$,IFCREAL(0.347),$);
#615=IFCPROPERTYSINGLEVALUE('FitRmsMetres',$,IFCREAL(0.007859678056503757),$);
#616=IFCPROPERTYSINGLEVALUE('InlierPoints',$,IFCINTEGER(387533),$);
#617=IFCPROPERTYSET('3BYTIg3198J86kNvrbgPqr',#5,'IfcLite_ScanDetection',$,(#610,#611,#612,#613,#614,#615,#616));
#618=IFCRELDEFINESBYPROPERTIES('2uKQYW9Mf8HQGMHss7B6fm',#5,$,$,(#349),#617);
#619=IFCPROPERTYSINGLEVALUE('SourceScan',$,IFCLABEL('Apartment.e57'),$);
#620=IFCPROPERTYSINGLEVALUE('DetectionId',$,IFCIDENTIFIER('slab-1'),$);
#621=IFCPROPERTYSINGLEVALUE('Basis',$,IFCLABEL('ceiling'),$);
#622=IFCPROPERTYSINGLEVALUE('SourceDetections',$,IFCLABEL('plane:1'),$);
#623=IFCPROPERTYSINGLEVALUE('Confidence',$,IFCREAL(0.424),$);
#624=IFCPROPERTYSINGLEVALUE('FitRmsMetres',$,IFCREAL(0.007190968911393913),$);
#625=IFCPROPERTYSINGLEVALUE('InlierPoints',$,IFCINTEGER(143165),$);
#626=IFCPROPERTYSET('3O0aISI3X20wuY2aiWn$dM',#5,'IfcLite_ScanDetection',$,(#619,#620,#621,#622,#623,#624,#625));
#627=IFCRELDEFINESBYPROPERTIES('2hpEfRcAX9chT1DeLajtp6',#5,$,$,(#367),#626);
#628=IFCPROPERTYSINGLEVALUE('SourceScan',$,IFCLABEL('Apartment.e57'),$);
#629=IFCPROPERTYSINGLEVALUE('DetectionId',$,IFCIDENTIFIER('slab-2'),$);
#630=IFCPROPERTYSINGLEVALUE('Basis',$,IFCLABEL('ceiling'),$);
#631=IFCPROPERTYSINGLEVALUE('SourceDetections',$,IFCLABEL('plane:4'),$);
#632=IFCPROPERTYSINGLEVALUE('Confidence',$,IFCREAL(0.308),$);
#633=IFCPROPERTYSINGLEVALUE('FitRmsMetres',$,IFCREAL(0.008459219480788465),$);
#634=IFCPROPERTYSINGLEVALUE('InlierPoints',$,IFCINTEGER(51859),$);
#635=IFCPROPERTYSET('1aQK9eGBX3sARMIOpvpuQq',#5,'IfcLite_ScanDetection',$,(#628,#629,#630,#631,#632,#633,#634));
#636=IFCRELDEFINESBYPROPERTIES('27e3uRZdn9bOihhfMNWo8v',#5,$,$,(#385),#635);
#637=IFCPROPERTYSINGLEVALUE('SourceScan',$,IFCLABEL('Apartment.e57'),$);
#638=IFCPROPERTYSINGLEVALUE('DetectionId',$,IFCIDENTIFIER('slab-3'),$);
#639=IFCPROPERTYSINGLEVALUE('Basis',$,IFCLABEL('ceiling'),$);
#640=IFCPROPERTYSINGLEVALUE('SourceDetections',$,IFCLABEL('plane:13'),$);
#641=IFCPROPERTYSINGLEVALUE('Confidence',$,IFCREAL(0.542),$);
#642=IFCPROPERTYSINGLEVALUE('FitRmsMetres',$,IFCREAL(0.0055536704966581045),$);
#643=IFCPROPERTYSINGLEVALUE('InlierPoints',$,IFCINTEGER(30285),$);
#644=IFCPROPERTYSET('1BSaieiv18kwZQMimlNZCj',#5,'IfcLite_ScanDetection',$,(#637,#638,#639,#640,#641,#642,#643));
#645=IFCRELDEFINESBYPROPERTIES('3tbxEJPF90Z9P$D5moEwvy',#5,$,$,(#403),#644);
#646=IFCPROPERTYSINGLEVALUE('SourceScan',$,IFCLABEL('Apartment.e57'),$);
#647=IFCPROPERTYSINGLEVALUE('DetectionId',$,IFCIDENTIFIER('slab-4'),$);
#648=IFCPROPERTYSINGLEVALUE('Basis',$,IFCLABEL('ceiling'),$);
#649=IFCPROPERTYSINGLEVALUE('SourceDetections',$,IFCLABEL('plane:14'),$);
#650=IFCPROPERTYSINGLEVALUE('Confidence',$,IFCREAL(0.578),$);
#651=IFCPROPERTYSINGLEVALUE('FitRmsMetres',$,IFCREAL(0.0029385341607432083),$);
#652=IFCPROPERTYSINGLEVALUE('InlierPoints',$,IFCINTEGER(23185),$);
#653=IFCPROPERTYSET('0$$RQsquH6qwblydmBkhI3',#5,'IfcLite_ScanDetection',$,(#646,#647,#648,#649,#650,#651,#652));
#654=IFCRELDEFINESBYPROPERTIES('1zYy6wtQD1rfvMJQCKTVIf',#5,$,$,(#421),#653);
#655=IFCPROPERTYSINGLEVALUE('SourceScan',$,IFCLABEL('Apartment.e57'),$);
#656=IFCPROPERTYSINGLEVALUE('DetectionId',$,IFCIDENTIFIER('slab-5'),$);
#657=IFCPROPERTYSINGLEVALUE('Basis',$,IFCLABEL('ceiling'),$);
#658=IFCPROPERTYSINGLEVALUE('SourceDetections',$,IFCLABEL('plane:16'),$);
#659=IFCPROPERTYSINGLEVALUE('Confidence',$,IFCREAL(0.455),$);
#660=IFCPROPERTYSINGLEVALUE('FitRmsMetres',$,IFCREAL(0.004685126257033525),$);
#661=IFCPROPERTYSINGLEVALUE('InlierPoints',$,IFCINTEGER(13495),$);
#662=IFCPROPERTYSET('3$sBn3r9H9xQvNQ0ZcnR8I',#5,'IfcLite_ScanDetection',$,(#655,#656,#657,#658,#659,#660,#661));
#663=IFCRELDEFINESBYPROPERTIES('0Qau3F$7H8MBkPjo$XgAJZ',#5,$,$,(#439),#662);
#664=IFCPROPERTYSINGLEVALUE('SourceScan',$,IFCLABEL('Apartment.e57'),$);
#665=IFCPROPERTYSINGLEVALUE('DetectionId',$,IFCIDENTIFIER('slab-6'),$);
#666=IFCPROPERTYSINGLEVALUE('Basis',$,IFCLABEL('floor'),$);
#667=IFCPROPERTYSINGLEVALUE('SourceDetections',$,IFCLABEL('plane:27'),$);
#668=IFCPROPERTYSINGLEVALUE('Confidence',$,IFCREAL(0.334),$);
#669=IFCPROPERTYSINGLEVALUE('FitRmsMetres',$,IFCREAL(0.00336855080854828),$);
#670=IFCPROPERTYSINGLEVALUE('InlierPoints',$,IFCINTEGER(3629),$);
#671=IFCPROPERTYSET('3u34mEGBnBogy$bjiTCnAo',#5,'IfcLite_ScanDetection',$,(#664,#665,#666,#667,#668,#669,#670));
#672=IFCRELDEFINESBYPROPERTIES('3x_KUvK3fEHxPr1pdjQ3vB',#5,$,$,(#457),#671);
#673=IFCPROPERTYSINGLEVALUE('SourceScan',$,IFCLABEL('Apartment.e57'),$);
#674=IFCPROPERTYSINGLEVALUE('DetectionId',$,IFCIDENTIFIER('pipe-0'),$);
#675=IFCPROPERTYSINGLEVALUE('Basis',$,IFCLABEL('cylinder'),$);
#676=IFCPROPERTYSINGLEVALUE('SourceDetections',$,IFCLABEL('cylinder:0'),$);
#677=IFCPROPERTYSINGLEVALUE('Confidence',$,IFCREAL(0.368),$);
#678=IFCPROPERTYSINGLEVALUE('FitRmsMetres',$,IFCREAL(0.007376068977539392),$);
#679=IFCPROPERTYSINGLEVALUE('InlierPoints',$,IFCINTEGER(447),$);
#680=IFCPROPERTYSET('3BoK_6hIn5Ve9fN9PmEEui',#5,'IfcLite_ScanDetection',$,(#673,#674,#675,#676,#677,#678,#679));
#681=IFCRELDEFINESBYPROPERTIES('0b_XzJ5wn9KxK1pD5u9b7G',#5,$,$,(#473),#680);
#33=IFCCARTESIANPOINT((1.7841361103171827,-4.920665589877064,-1.3655756604710971));
#34=IFCDIRECTION((0.,0.,1.));
#35=IFCDIRECTION((0.6324260861890016,0.7746207107402057,0.));
#36=IFCAXIS2PLACEMENT3D(#33,#34,#35);
#37=IFCLOCALPLACEMENT(#29,#36);
#38=IFCCARTESIANPOINT((2.47481934,0.));
#39=IFCAXIS2PLACEMENT2D(#38,$);
#40=IFCRECTANGLEPROFILEDEF(.AREA.,$,#39,4.949638681,0.159191523);
#41=IFCCARTESIANPOINT((0.,0.,0.));
#42=IFCAXIS2PLACEMENT3D(#41,$,$);
#43=IFCDIRECTION((0.,0.,1.));
#44=IFCEXTRUDEDAREASOLID(#40,#42,#43,2.538554348505385);
#45=IFCSHAPEREPRESENTATION(#12,'Body','SweptSolid',(#44));
#46=IFCCARTESIANPOINT((0.,0.));
#47=IFCCARTESIANPOINT((4.949638681,0.));
#48=IFCPOLYLINE((#46,#47));
#49=IFCSHAPEREPRESENTATION(#13,'Axis','Curve2D',(#48));
#50=IFCPRODUCTDEFINITIONSHAPE($,$,(#45,#49));
#52=IFCRELCONTAINEDINSPATIALSTRUCTURE('33DIe2O0T4TRhD4GON59HI',#5,$,$,(#51),#26);
#53=IFCCARTESIANPOINT((1.5962487447465854,-5.092876939799449,-1.3655756604710971));
#54=IFCDIRECTION((0.,0.,1.));
#55=IFCDIRECTION((-0.7848420699753488,0.6196958328057481,0.));
#56=IFCAXIS2PLACEMENT3D(#53,#54,#55);
#57=IFCLOCALPLACEMENT(#29,#56);
#58=IFCCARTESIANPOINT((1.86938887,0.));
#59=IFCAXIS2PLACEMENT2D(#58,$);
#60=IFCRECTANGLEPROFILEDEF(.AREA.,$,#59,3.738777739,0.115554564);
#61=IFCCARTESIANPOINT((0.,0.,0.));
#62=IFCAXIS2PLACEMENT3D(#61,$,$);
#63=IFCDIRECTION((0.,0.,1.));
#64=IFCEXTRUDEDAREASOLID(#60,#62,#63,2.5311423303016243);
#65=IFCSHAPEREPRESENTATION(#12,'Body','SweptSolid',(#64));
#66=IFCCARTESIANPOINT((0.,0.));
#67=IFCCARTESIANPOINT((3.738777739,0.));
#68=IFCPOLYLINE((#66,#67));
#69=IFCSHAPEREPRESENTATION(#13,'Axis','Curve2D',(#68));
#70=IFCPRODUCTDEFINITIONSHAPE($,$,(#65,#69));
#72=IFCRELCONTAINEDINSPATIALSTRUCTURE('24GOSd0hP1uBWWp3JKJRbp',#5,$,$,(#71),#26);
#73=IFCCARTESIANPOINT((5.179226528016234,-6.50945673001232,-1.3655756604710971));
#74=IFCDIRECTION((0.,0.,1.));
#75=IFCDIRECTION((0.626416224742887,0.7794887512843716,0.));
#76=IFCAXIS2PLACEMENT3D(#73,#74,#75);
#77=IFCLOCALPLACEMENT(#29,#76);
#78=IFCCARTESIANPOINT((2.023183656,0.));
#79=IFCAXIS2PLACEMENT2D(#78,$);
#80=IFCRECTANGLEPROFILEDEF(.AREA.,$,#79,4.046367312,0.2);
#81=IFCCARTESIANPOINT((0.,0.,0.));
#82=IFCAXIS2PLACEMENT3D(#81,$,$);
#83=IFCDIRECTION((0.,0.,1.));
#84=IFCEXTRUDEDAREASOLID(#80,#82,#83,2.538554348505385);
#85=IFCSHAPEREPRESENTATION(#12,'Body','SweptSolid',(#84));
#86=IFCCARTESIANPOINT((0.,0.));
#87=IFCCARTESIANPOINT((4.046367312,0.));
#88=IFCPOLYLINE((#86,#87));
#89=IFCSHAPEREPRESENTATION(#13,'Axis','Curve2D',(#88));
#90=IFCPRODUCTDEFINITIONSHAPE($,$,(#85,#89));
#92=IFCRELCONTAINEDINSPATIALSTRUCTURE('3NA1uFQDX2PvftogDfCOfT',#5,$,$,(#91),#26);
#93=IFCCARTESIANPOINT((1.8159911482428792,-7.518913590496691,-1.3655756604710971));
#94=IFCDIRECTION((0.,0.,1.));
#95=IFCDIRECTION((0.6231760159418979,0.7820816154051848,0.));
#96=IFCAXIS2PLACEMENT3D(#93,#94,#95);
#97=IFCLOCALPLACEMENT(#29,#96);
#98=IFCCARTESIANPOINT((1.361045888,0.));
#99=IFCAXIS2PLACEMENT2D(#98,$);
#100=IFCRECTANGLEPROFILEDEF(.AREA.,$,#99,2.722091775,0.131206018);
#101=IFCCARTESIANPOINT((0.,0.,0.));
#102=IFCAXIS2PLACEMENT3D(#101,$,$);
#103=IFCDIRECTION((0.,0.,1.));
#104=IFCEXTRUDEDAREASOLID(#100,#102,#103,2.307943803670777);
#105=IFCSHAPEREPRESENTATION(#12,'Body','SweptSolid',(#104));
#106=IFCCARTESIANPOINT((0.,0.));
#107=IFCCARTESIANPOINT((2.722091775,0.));
#108=IFCPOLYLINE((#106,#107));
#109=IFCSHAPEREPRESENTATION(#13,'Axis','Curve2D',(#108));
#110=IFCPRODUCTDEFINITIONSHAPE($,$,(#105,#109));
#112=IFCRELCONTAINEDINSPATIALSTRUCTURE('396j3$v8HEyuWkNafUVypf',#5,$,$,(#111),#26);
#113=IFCCARTESIANPOINT((3.3901378078194693,-8.683215910644952,-1.3655756604710971));
#114=IFCDIRECTION((0.,0.,1.));
#115=IFCDIRECTION((0.6259347940455904,0.7798753962032039,0.));
#116=IFCAXIS2PLACEMENT3D(#113,#114,#115);
#117=IFCLOCALPLACEMENT(#29,#116);
#118=IFCCARTESIANPOINT((1.221847303,0.));
#119=IFCAXIS2PLACEMENT2D(#118,$);
#120=IFCRECTANGLEPROFILEDEF(.AREA.,$,#119,2.443694606,0.2);
#121=IFCCARTESIANPOINT((0.,0.,0.));
#122=IFCAXIS2PLACEMENT3D(#121,$,$);
#123=IFCDIRECTION((0.,0.,1.));
#124=IFCEXTRUDEDAREASOLID(#120,#122,#123,2.2786286047100144);
#125=IFCSHAPEREPRESENTATION(#12,'Body','SweptSolid',(#124));
#126=IFCCARTESIANPOINT((0.,0.));
#127=IFCCARTESIANPOINT((2.443694606,0.));
#128=IFCPOLYLINE((#126,#127));
#129=IFCSHAPEREPRESENTATION(#13,'Axis','Curve2D',(#128));
#130=IFCPRODUCTDEFINITIONSHAPE($,$,(#125,#129));
#132=IFCRELCONTAINEDINSPATIALSTRUCTURE('3CTEw4cuXAlBHiaMNbZlWr',#5,$,$,(#131),#26);
#133=IFCCARTESIANPOINT((1.6943131501699362,-7.577498282400258,-1.3655756604710971));
#134=IFCDIRECTION((0.,0.,1.));
#135=IFCDIRECTION((-0.7775103336083116,0.6288701623803532,0.));
#136=IFCAXIS2PLACEMENT3D(#133,#134,#135);
#137=IFCLOCALPLACEMENT(#29,#136);
#138=IFCCARTESIANPOINT((0.791887732,0.));
#139=IFCAXIS2PLACEMENT2D(#138,$);
#140=IFCRECTANGLEPROFILEDEF(.AREA.,$,#139,1.583775464,0.2);
#141=IFCCARTESIANPOINT((0.,0.,0.));
#142=IFCAXIS2PLACEMENT3D(#141,$,$);
#143=IFCDIRECTION((0.,0.,1.));
#144=IFCEXTRUDEDAREASOLID(#140,#142,#143,2.307943803670777);
#145=IFCSHAPEREPRESENTATION(#12,'Body','SweptSolid',(#144));
#146=IFCCARTESIANPOINT((0.,0.));
#147=IFCCARTESIANPOINT((1.583775464,0.));
#148=IFCPOLYLINE((#146,#147));
#149=IFCSHAPEREPRESENTATION(#13,'Axis','Curve2D',(#148));
#150=IFCPRODUCTDEFINITIONSHAPE($,$,(#145,#149));
#152=IFCRELCONTAINEDINSPATIALSTRUCTURE('0SFrdL3LPAGv3o5QxjZJVL',#5,$,$,(#151),#26);
#153=IFCCARTESIANPOINT((3.234505230093785,-8.71014479386767,-0.830894006719711));
#154=IFCDIRECTION((0.,0.,1.));
#155=IFCDIRECTION((-0.7873385773503367,0.6165208549724395,0.));
#156=IFCAXIS2PLACEMENT3D(#153,#154,#155);
#157=IFCLOCALPLACEMENT(#29,#156);
#158=IFCCARTESIANPOINT((0.87902762,0.));
#159=IFCAXIS2PLACEMENT2D(#158,$);
#160=IFCRECTANGLEPROFILEDEF(.AREA.,$,#159,1.75805524,0.2);
#161=IFCCARTESIANPOINT((0.,0.,0.));
#162=IFCAXIS2PLACEMENT3D(#161,$,$);
#163=IFCDIRECTION((0.,0.,1.));
#164=IFCEXTRUDEDAREASOLID(#160,#162,#163,1.743946950958628);
#165=IFCSHAPEREPRESENTATION(#12,'Body','SweptSolid',(#164));
#166=IFCCARTESIANPOINT((0.,0.));
#167=IFCCARTESIANPOINT((1.75805524,0.));
#168=IFCPOLYLINE((#166,#167));
#169=IFCSHAPEREPRESENTATION(#13,'Axis','Curve2D',(#168));
#170=IFCPRODUCTDEFINITIONSHAPE($,$,(#165,#169));
#172=IFCRELCONTAINEDINSPATIALSTRUCTURE('15lFEdy6r2Reo6$FEwHoPe',#5,$,$,(#171),#26);
#173=IFCCARTESIANPOINT((7.689974061727772,-3.188351625931508,-1.3655756604710971));
#174=IFCDIRECTION((0.,0.,1.));
#175=IFCDIRECTION((-0.789159237450984,0.6141886501277773,0.));
#176=IFCAXIS2PLACEMENT3D(#173,#174,#175);
#177=IFCLOCALPLACEMENT(#29,#176);
#178=IFCCARTESIANPOINT((0.552124824,0.));
#179=IFCAXIS2PLACEMENT2D(#178,$);
#180=IFCRECTANGLEPROFILEDEF(.AREA.,$,#179,1.104249649,0.2);
#181=IFCCARTESIANPOINT((0.,0.,0.));
#182=IFCAXIS2PLACEMENT3D(#181,$,$);
#183=IFCDIRECTION((0.,0.,1.));
#184=IFCEXTRUDEDAREASOLID(#180,#182,#183,2.538554348505385);
#185=IFCSHAPEREPRESENTATION(#12,'Body','SweptSolid',(#184));
#186=IFCCARTESIANPOINT((0.,0.));
#187=IFCCARTESIANPOINT((1.104249649,0.));
#188=IFCPOLYLINE((#186,#187));
#189=IFCSHAPEREPRESENTATION(#13,'Axis','Curve2D',(#188));
#190=IFCPRODUCTDEFINITIONSHAPE($,$,(#185,#189));
#192=IFCRELCONTAINEDINSPATIALSTRUCTURE('3shbpd1EX8J8CkOYeb1nr$',#5,$,$,(#191),#26);
#193=IFCCARTESIANPOINT((3.3063908676805864,-3.94140966337514,-1.3655756604710971));
#194=IFCDIRECTION((0.,0.,1.));
#195=IFCDIRECTION((-0.8675694278777552,-0.49731608440896496,0.));
#196=IFCAXIS2PLACEMENT3D(#193,#194,#195);
#197=IFCLOCALPLACEMENT(#29,#196);
#198=IFCCARTESIANPOINT((0.507244424,0.));
#199=IFCAXIS2PLACEMENT2D(#198,$);
#200=IFCRECTANGLEPROFILEDEF(.AREA.,$,#199,1.014488848,0.07215597);
#201=IFCCARTESIANPOINT((0.,0.,0.));
#202=IFCAXIS2PLACEMENT3D(#201,$,$);
#203=IFCDIRECTION((0.,0.,1.));
#204=IFCEXTRUDEDAREASOLID(#200,#202,#203,1.997053554893776);
#205=IFCSHAPEREPRESENTATION(#12,'Body','SweptSolid',(#204));
#206=IFCCARTESIANPOINT((0.,0.));
#207=IFCCARTESIANPOINT((1.014488848,0.));
#208=IFCPOLYLINE((#206,#207));
#209=IFCSHAPEREPRESENTATION(#13,'Axis','Curve2D',(#208));
#210=IFCPRODUCTDEFINITIONSHAPE($,$,(#205,#209));
#212=IFCRELCONTAINEDINSPATIALSTRUCTURE('31rOD$G$f8T8L6sjoLtGa$',#5,$,$,(#211),#26);
#213=IFCCARTESIANPOINT((0.5947980161971946,-6.54846308355574,-1.3655756604710971));
#214=IFCDIRECTION((0.,0.,1.));
#215=IFCDIRECTION((0.6113985147059766,0.7913228520745031,0.));
#216=IFCAXIS2PLACEMENT3D(#213,#214,#215);
#217=IFCLOCALPLACEMENT(#29,#216);
#218=IFCCARTESIANPOINT((0.258935946,0.));
#219=IFCAXIS2PLACEMENT2D(#218,$);
#220=IFCRECTANGLEPROFILEDEF(.AREA.,$,#219,0.517871892,0.2);
#221=IFCCARTESIANPOINT((0.,0.,0.));
#222=IFCAXIS2PLACEMENT3D(#221,$,$);
#223=IFCDIRECTION((0.,0.,1.));
#224=IFCEXTRUDEDAREASOLID(#220,#222,#223,2.307943803670777);
#225=IFCSHAPEREPRESENTATION(#12,'Body','SweptSolid',(#224));
#226=IFCCARTESIANPOINT((0.,0.));
#227=IFCCARTESIANPOINT((0.517871892,0.));
#228=IFCPOLYLINE((#226,#227));
#229=IFCSHAPEREPRESENTATION(#13,'Axis','Curve2D',(#228));
#230=IFCPRODUCTDEFINITIONSHAPE($,$,(#225,#229));
#232=IFCRELCONTAINEDINSPATIALSTRUCTURE('04QortW6LD99FFb89JLEFE',#5,$,$,(#231),#26);
#233=IFCCARTESIANPOINT((-1.4019611293714678,-4.071621633997767,-1.3655756604710971));
#234=IFCDIRECTION((0.,0.,1.));
#235=IFCDIRECTION((0.007648286982876561,0.9999707514253743,0.));
#236=IFCAXIS2PLACEMENT3D(#233,#234,#235);
#237=IFCLOCALPLACEMENT(#29,#236);
#238=IFCCARTESIANPOINT((0.446737014,0.));
#239=IFCAXIS2PLACEMENT2D(#238,$);
#240=IFCRECTANGLEPROFILEDEF(.AREA.,$,#239,0.893474027,0.2);
#241=IFCCARTESIANPOINT((0.,0.,0.));
#242=IFCAXIS2PLACEMENT3D(#241,$,$);
#243=IFCDIRECTION((0.,0.,1.));
#244=IFCEXTRUDEDAREASOLID(#240,#242,#243,1.5561805891908187);
#245=IFCSHAPEREPRESENTATION(#12,'Body','SweptSolid',(#244));
#246=IFCCARTESIANPOINT((0.,0.));
#247=IFCCARTESIANPOINT((0.893474027,0.));
#248=IFCPOLYLINE((#246,#247));
#249=IFCSHAPEREPRESENTATION(#13,'Axis','Curve2D',(#248));
#250=IFCPRODUCTDEFINITIONSHAPE($,$,(#245,#249));
#252=IFCRELCONTAINEDINSPATIALSTRUCTURE('3HDyIqqGHFjBN1vKA_frIh',#5,$,$,(#251),#26);
#253=IFCCARTESIANPOINT((3.24308103983666,-7.012273681878267,-1.3655756604710971));
#254=IFCDIRECTION((0.,0.,1.));
#255=IFCDIRECTION((-0.9825578346650826,0.1859572572885073,0.));
#256=IFCAXIS2PLACEMENT3D(#253,#254,#255);
#257=IFCLOCALPLACEMENT(#29,#256);
#258=IFCCARTESIANPOINT((0.421926156,0.));
#259=IFCAXIS2PLACEMENT2D(#258,$);
#260=IFCRECTANGLEPROFILEDEF(.AREA.,$,#259,0.843852311,0.2);
#261=IFCCARTESIANPOINT((0.,0.,0.));
#262=IFCAXIS2PLACEMENT3D(#261,$,$);
#263=IFCDIRECTION((0.,0.,1.));
#264=IFCEXTRUDEDAREASOLID(#260,#262,#263,1.9592834362126839);
#265=IFCSHAPEREPRESENTATION(#12,'Body','SweptSolid',(#264));
#266=IFCCARTESIANPOINT((0.,0.));
#267=IFCCARTESIANPOINT((0.843852311,0.));
#268=IFCPOLYLINE((#266,#267));
#269=IFCSHAPEREPRESENTATION(#13,'Axis','Curve2D',(#268));
#270=IFCPRODUCTDEFINITIONSHAPE($,$,(#265,#269));
#272=IFCRELCONTAINEDINSPATIALSTRUCTURE('2UzqK_ErvAPRJ_I5_Sy2Bz',#5,$,$,(#271),#26);
#273=IFCCARTESIANPOINT((-0.3157876025235211,-5.167081670903178,-1.3655756604710971));
#274=IFCDIRECTION((0.,0.,1.));
#275=IFCDIRECTION((0.6323405424109599,0.7746905436517301,0.));
#276=IFCAXIS2PLACEMENT3D(#273,#274,#275);
#277=IFCLOCALPLACEMENT(#29,#276);
#278=IFCCARTESIANPOINT((0.313595182,0.));
#279=IFCAXIS2PLACEMENT2D(#278,$);
#280=IFCRECTANGLEPROFILEDEF(.AREA.,$,#279,0.627190364,0.2);
#281=IFCCARTESIANPOINT((0.,0.,0.));
#282=IFCAXIS2PLACEMENT3D(#281,$,$);
#283=IFCDIRECTION((0.,0.,1.));
#284=IFCEXTRUDEDAREASOLID(#280,#282,#283,1.938877720006154);
#285=IFCSHAPEREPRESENTATION(#12,'Body','SweptSolid',(#284));
#286=IFCCARTESIANPOINT((0.,0.));
#287=IFCCARTESIANPOINT((0.627190364,0.));
#288=IFCPOLYLINE((#286,#287));
#289=IFCSHAPEREPRESENTATION(#13,'Axis','Curve2D',(#288));
#290=IFCPRODUCTDEFINITIONSHAPE($,$,(#285,#289));
#292=IFCRELCONTAINEDINSPATIALSTRUCTURE('0TLMo4$Db8zvA$efAFyzHw',#5,$,$,(#291),#26);
#293=IFCCARTESIANPOINT((1.436011625536497,-5.285056588654276,-1.2710777922706966));
#294=IFCDIRECTION((0.,0.,1.));
#295=IFCDIRECTION((-0.7719949777933898,0.6356286292024483,0.));
#296=IFCAXIS2PLACEMENT3D(#293,#294,#295);
#297=IFCLOCALPLACEMENT(#29,#296);
#298=IFCCARTESIANPOINT((0.255480516,0.));
#299=IFCAXIS2PLACEMENT2D(#298,$);
#300=IFCRECTANGLEPROFILEDEF(.AREA.,$,#299,0.510961032,0.2);
#301=IFCCARTESIANPOINT((0.,0.,0.));
#302=IFCAXIS2PLACEMENT3D(#301,$,$);
#303=IFCDIRECTION((0.,0.,1.));
#304=IFCEXTRUDEDAREASOLID(#300,#302,#303,1.9719995486602084);
#305=IFCSHAPEREPRESENTATION(#12,'Body','SweptSolid',(#304));
#306=IFCCARTESIANPOINT((0.,0.));
#307=IFCCARTESIANPOINT((0.510961032,0.));
#308=IFCPOLYLINE((#306,#307));
#309=IFCSHAPEREPRESENTATION(#13,'Axis','Curve2D',(#308));
#310=IFCPRODUCTDEFINITIONSHAPE($,$,(#305,#309));
#312=IFCRELCONTAINEDINSPATIALSTRUCTURE('3YvYdykPPAvgK1XNPDptfi',#5,$,$,(#311),#26);
#313=IFCCARTESIANPOINT((-0.18954859292768722,-4.559617978840276,-1.3655756604710971));
#314=IFCDIRECTION((0.,0.,1.));
#315=IFCDIRECTION((-0.7843723635361932,0.620290250867,0.));
#316=IFCAXIS2PLACEMENT3D(#313,#314,#315);
#317=IFCLOCALPLACEMENT(#29,#316);
#318=IFCCARTESIANPOINT((0.266679687,0.));
#319=IFCAXIS2PLACEMENT2D(#318,$);
#320=IFCRECTANGLEPROFILEDEF(.AREA.,$,#319,0.533359375,0.2);
#321=IFCCARTESIANPOINT((0.,0.,0.));
#322=IFCAXIS2PLACEMENT3D(#321,$,$);
#323=IFCDIRECTION((0.,0.,1.));
#324=IFCEXTRUDEDAREASOLID(#320,#322,#323,1.6783945263058873);
#325=IFCSHAPEREPRESENTATION(#12,'Body','SweptSolid',(#324));
#326=IFCCARTESIANPOINT((0.,0.));
#327=IFCCARTESIANPOINT((0.533359375,0.));
#328=IFCPOLYLINE((#326,#327));
#329=IFCSHAPEREPRESENTATION(#13,'Axis','Curve2D',(#328));
#330=IFCPRODUCTDEFINITIONSHAPE($,$,(#325,#329));
#332=IFCRELCONTAINEDINSPATIALSTRUCTURE('11DSCQUfz3TOnd90KGsKB3',#5,$,$,(#331),#26);
#333=IFCCARTESIANPOINT((0.,0.,-1.565575660471097));
#334=IFCAXIS2PLACEMENT3D(#333,$,$);
#335=IFCLOCALPLACEMENT(#29,#334);
#336=IFCCARTESIANPOINT((-4.405149598475878,-2.4772341638342943));
#337=IFCCARTESIANPOINT((3.2289486884202603,-8.698253226420277));
#338=IFCCARTESIANPOINT((7.630491940977015,-3.296918742502956));
#339=IFCCARTESIANPOINT((-0.0036063459191226777,2.924100320083026));
#340=IFCCARTESIANPOINT((-4.405149598475878,-2.4772341638342943));
#341=IFCPOLYLINE((#336,#337,#338,#339,#340));
#342=IFCARBITRARYCLOSEDPROFILEDEF(.AREA.,$,#341);
#343=IFCCARTESIANPOINT((0.,0.,0.));
#344=IFCAXIS2PLACEMENT3D(#343,$,$);
#345=IFCDIRECTION((0.,0.,1.));
#346=IFCEXTRUDEDAREASOLID(#342,#344,#345,0.2);
#347=IFCSHAPEREPRESENTATION(#12,'Body','SweptSolid',(#346));
#348=IFCPRODUCTDEFINITIONSHAPE($,$,(#347));
#350=IFCRELCONTAINEDINSPATIALSTRUCTURE('0WmsX5YVz09Ry9edgPYvnj',#5,$,$,(#349),#26);
#351=IFCCARTESIANPOINT((0.,0.,1.165566669830527));
#352=IFCAXIS2PLACEMENT3D(#351,$,$);
#353=IFCLOCALPLACEMENT(#29,#352);
#354=IFCCARTESIANPOINT((-3.2626017478459537,-1.2000109896619433));
#355=IFCCARTESIANPOINT((1.6555605100339532,-5.037009169853221));
#356=IFCCARTESIANPOINT((4.831902432943071,-0.9656353052955404));
#357=IFCCARTESIANPOINT((-0.08625982493683626,2.8713628748957367));
#358=IFCCARTESIANPOINT((-3.2626017478459537,-1.2000109896619433));
#359=IFCPOLYLINE((#354,#355,#356,#357,#358));
#360=IFCARBITRARYCLOSEDPROFILEDEF(.AREA.,$,#359);
#361=IFCCARTESIANPOINT((0.,0.,0.));
#362=IFCAXIS2PLACEMENT3D(#361,$,$);
#363=IFCDIRECTION((0.,0.,1.));
#364=IFCEXTRUDEDAREASOLID(#360,#362,#363,0.2);
#365=IFCSHAPEREPRESENTATION(#12,'Body','SweptSolid',(#364));
#366=IFCPRODUCTDEFINITIONSHAPE($,$,(#365));
#368=IFCRELCONTAINEDINSPATIALSTRUCTURE('0IFGBCzzb0KQLk6U_vlM9V',#5,$,$,(#367),#26);
#369=IFCCARTESIANPOINT((0.,0.,1.1729786880342876));
#370=IFCAXIS2PLACEMENT3D(#369,$,$);
#371=IFCLOCALPLACEMENT(#29,#370);
#372=IFCCARTESIANPOINT((4.981191711639411,-1.1411843449779238));
#373=IFCCARTESIANPOINT((2.430202365004029,-4.28916282295819));
#374=IFCCARTESIANPOINT((5.081397794574361,-6.43722441408398));
#375=IFCCARTESIANPOINT((7.632387141209742,-3.289245936103714));
#376=IFCCARTESIANPOINT((4.981191711639411,-1.1411843449779238));
#377=IFCPOLYLINE((#372,#373,#374,#375,#376));
#378=IFCARBITRARYCLOSEDPROFILEDEF(.AREA.,$,#377);
#379=IFCCARTESIANPOINT((0.,0.,0.));
#380=IFCAXIS2PLACEMENT3D(#379,$,$);
#381=IFCDIRECTION((0.,0.,1.));
#382=IFCEXTRUDEDAREASOLID(#378,#380,#381,0.2);
#383=IFCSHAPEREPRESENTATION(#12,'Body','SweptSolid',(#382));
#384=IFCPRODUCTDEFINITIONSHAPE($,$,(#383));
#386=IFCRELCONTAINEDINSPATIALSTRUCTURE('37WrauoAP45xXKqQrMBNI1',#5,$,$,(#385),#26);
#387=IFCCARTESIANPOINT((0.,0.,0.9130529442389173));
#388=IFCAXIS2PLACEMENT3D(#387,$,$);
#389=IFCLOCALPLACEMENT(#29,#388);
#390=IFCCARTESIANPOINT((1.9119957553847744,-7.495321354294298));
#391=IFCCARTESIANPOINT((3.315307392367643,-8.6133957318312));
#392=IFCCARTESIANPOINT((4.814479888508059,-6.7317155647515605));
#393=IFCCARTESIANPOINT((3.41116825152519,-5.613641187214658));
#394=IFCCARTESIANPOINT((1.9119957553847744,-7.495321354294298));
#395=IFCPOLYLINE((#390,#391,#392,#393,#394));
#396=IFCARBITRARYCLOSEDPROFILEDEF(.AREA.,$,#395);
#397=IFCCARTESIANPOINT((0.,0.,0.));
#398=IFCAXIS2PLACEMENT3D(#397,$,$);
#399=IFCDIRECTION((0.,0.,1.));
#400=IFCEXTRUDEDAREASOLID(#396,#398,#399,0.2);
#401=IFCSHAPEREPRESENTATION(#12,'Body','SweptSolid',(#400));
#402=IFCPRODUCTDEFINITIONSHAPE($,$,(#401));
#404=IFCRELCONTAINEDINSPATIALSTRUCTURE('2e8djGR3j60e4fiazmcIPK',#5,$,$,(#403),#26);
#405=IFCCARTESIANPOINT((0.,0.,0.9568590015980982));
#406=IFCAXIS2PLACEMENT3D(#405,$,$);
#407=IFCLOCALPLACEMENT(#29,#406);
#408=IFCCARTESIANPOINT((-4.06773107981527,-2.2670975385610945));
#409=IFCCARTESIANPOINT((-1.5573537568059388,-4.378674729346345));
#410=IFCCARTESIANPOINT((-0.6786569273555054,-3.334022843903612));
#411=IFCCARTESIANPOINT((-3.189034250364837,-1.2224456531183614));
#412=IFCCARTESIANPOINT((-4.06773107981527,-2.2670975385610945));
#413=IFCPOLYLINE((#408,#409,#410,#411,#412));
#414=IFCARBITRARYCLOSEDPROFILEDEF(.AREA.,$,#413);
#415=IFCCARTESIANPOINT((0.,0.,0.));
#416=IFCAXIS2PLACEMENT3D(#415,$,$);
#417=IFCDIRECTION((0.,0.,1.));
#418=IFCEXTRUDEDAREASOLID(#414,#416,#417,0.2);
#419=IFCSHAPEREPRESENTATION(#12,'Body','SweptSolid',(#418));
#420=IFCPRODUCTDEFINITIONSHAPE($,$,(#419));
#422=IFCRELCONTAINEDINSPATIALSTRUCTURE('1Pl3ll2SD4Ye0TjE8yyXOY',#5,$,$,(#421),#26);
#423=IFCCARTESIANPOINT((0.,0.,0.94236814319968));
#424=IFCAXIS2PLACEMENT3D(#423,$,$);
#425=IFCLOCALPLACEMENT(#29,#424);
#426=IFCCARTESIANPOINT((2.2465976668155934,-4.334028132747271));
#427=IFCCARTESIANPOINT((0.5845345522350609,-6.416785505682208));
#428=IFCCARTESIANPOINT((1.8303384610887452,-7.410951285226309));
#429=IFCCARTESIANPOINT((3.4924015756692777,-5.328193912291372));
#430=IFCCARTESIANPOINT((2.2465976668155934,-4.334028132747271));
#431=IFCPOLYLINE((#426,#427,#428,#429,#430));
#432=IFCARBITRARYCLOSEDPROFILEDEF(.AREA.,$,#431);
#433=IFCCARTESIANPOINT((0.,0.,0.));
#434=IFCAXIS2PLACEMENT3D(#433,$,$);
#435=IFCDIRECTION((0.,0.,1.));
#436=IFCEXTRUDEDAREASOLID(#432,#434,#435,0.2);
#437=IFCSHAPEREPRESENTATION(#12,'Body','SweptSolid',(#436));
#438=IFCPRODUCTDEFINITIONSHAPE($,$,(#437));
#440=IFCRELCONTAINEDINSPATIALSTRUCTURE('2drezcQWDF99fFm1OJwQH$',#5,$,$,(#439),#26);
#441=IFCCARTESIANPOINT((0.,0.,-1.5359864315640046));
#442=IFCAXIS2PLACEMENT3D(#441,$,$);
#443=IFCLOCALPLACEMENT(#29,#442);
#444=IFCCARTESIANPOINT((-0.573472431929019,1.279950484960378));
#445=IFCCARTESIANPOINT((1.4103265088383887,0.3498189427966265));
#446=IFCCARTESIANPOINT((1.9808134928827332,1.566549564062539));
#447=IFCCARTESIANPOINT((-0.0029854478846740307,2.4966811062262906));
#448=IFCCARTESIANPOINT((-0.573472431929019,1.279950484960378));
#449=IFCPOLYLINE((#444,#445,#446,#447,#448));
#450=IFCARBITRARYCLOSEDPROFILEDEF(.AREA.,$,#449);
#451=IFCCARTESIANPOINT((0.,0.,0.));
#452=IFCAXIS2PLACEMENT3D(#451,$,$);
#453=IFCDIRECTION((0.,0.,1.));
#454=IFCEXTRUDEDAREASOLID(#450,#452,#453,0.2);
#455=IFCSHAPEREPRESENTATION(#12,'Body','SweptSolid',(#454));
#456=IFCPRODUCTDEFINITIONSHAPE($,$,(#455));
#458=IFCRELCONTAINEDINSPATIALSTRUCTURE('2WeMUv_Gr8bBnOrRJnNiCC',#5,$,$,(#457),#26);
#459=IFCCARTESIANPOINT((0.7897232358574735,-4.80570031576146,1.090071754411008));
#460=IFCDIRECTION((-0.5254303718614891,-0.8505287509961575,-0.02288597942875746));
#461=IFCDIRECTION((0.8507515784269626,-0.5255680277604716,0.));
#462=IFCAXIS2PLACEMENT3D(#459,#460,#461);
#463=IFCLOCALPLACEMENT(#29,#462);
#464=IFCCARTESIANPOINT((0.,0.));
#465=IFCAXIS2PLACEMENT2D(#464,$);
#466=IFCCIRCLEPROFILEDEF(.AREA.,$,#465,0.10542867587457874);
#467=IFCCARTESIANPOINT((0.,0.,0.));
#468=IFCAXIS2PLACEMENT3D(#467,$,$);
#469=IFCDIRECTION((0.,0.,1.));
#470=IFCEXTRUDEDAREASOLID(#466,#468,#469,0.49645109345629895);
#471=IFCSHAPEREPRESENTATION(#12,'Body','SweptSolid',(#470));
#472=IFCPRODUCTDEFINITIONSHAPE($,$,(#471));
#474=IFCRELCONTAINEDINSPATIALSTRUCTURE('0gfR0Yzx9FRwHKs2uLOvFU',#5,$,$,(#473),#26);
#51=IFCWALL('3iTgfRoNP8JQCx_LZF3xHE',#5,'Scan wall-0',$,$,#37,#50,$,.NOTDEFINED.);
#71=IFCWALL('1CbwgCkF1DCvuckwoAYeR9',#5,'Scan wall-2',$,$,#57,#70,$,.NOTDEFINED.);
#91=IFCWALL('1aFbfqjmTEwRoDTZU$CN7j',#5,'Scan wall-3',$,$,#77,#90,$,.NOTDEFINED.);
#111=IFCWALL('0JtSfCDxvA6QbYeO31e_aQ',#5,'Scan wall-5',$,$,#97,#110,$,.NOTDEFINED.);
#131=IFCWALL('3xGzffNHHD1OC2s5w3gsfq',#5,'Scan wall-6',$,$,#117,#130,$,.NOTDEFINED.);
#151=IFCWALL('1U5ygVkdXCmwWYLF22Th_p',#5,'Scan wall-8',$,$,#137,#150,$,.NOTDEFINED.);
#171=IFCWALL('1VePBI$z1A0w7bx1lciWxo',#5,'Scan wall-10',$,$,#157,#170,$,.NOTDEFINED.);
#191=IFCWALL('0TiyEPfTXBTAxgoAIAAIFi',#5,'Scan wall-11',$,$,#177,#190,$,.NOTDEFINED.);
#211=IFCWALL('0C6rYVCzL3vgpijtb_H0TV',#5,'Scan wall-12',$,$,#197,#210,$,.NOTDEFINED.);
#231=IFCWALL('22ICEEWrLDeBfaH7fvaEBp',#5,'Scan wall-19',$,$,#217,#230,$,.NOTDEFINED.);
#251=IFCWALL('2oVLnEHCDAHfM7IA$VJEkt',#5,'Scan wall-21',$,$,#237,#250,$,.NOTDEFINED.);
#271=IFCWALL('0DgTRntuPCTgDQWbMh7sIz',#5,'Scan wall-22',$,$,#257,#270,$,.NOTDEFINED.);
#291=IFCWALL('0F3FWRLQ16pOR_$LrjsT5r',#5,'Scan wall-23',$,$,#277,#290,$,.NOTDEFINED.);
#311=IFCWALL('3tfn_C5IbC0QkhvpGT9LvY',#5,'Scan wall-24',$,$,#297,#310,$,.NOTDEFINED.);
#331=IFCWALL('2qrIxkwAn8fx_Chfe9RuP8',#5,'Scan wall-26',$,$,#317,#330,$,.NOTDEFINED.);
#349=IFCSLAB('2Rq3L_LAf8SRPCu7qBwUls',#5,'Scan slab-0',$,$,#335,#348,$,.FLOOR.);
#367=IFCSLAB('0N8BgquRvFge$IqHLQWs3C',#5,'Scan slab-1',$,$,#353,#366,$,.FLOOR.);
#385=IFCSLAB('1qCHt2qVTBa8TTp_mYi4c8',#5,'Scan slab-2',$,$,#371,#384,$,.FLOOR.);
#403=IFCSLAB('1C5ynpx114GhJi_vbxc_iz',#5,'Scan slab-3',$,$,#389,#402,$,.FLOOR.);
#421=IFCSLAB('12rqLD33j0wARMrgRbHbRm',#5,'Scan slab-4',$,$,#407,#420,$,.FLOOR.);
#439=IFCSLAB('3qGGsy8QH9w96CqqsYdHND',#5,'Scan slab-5',$,$,#425,#438,$,.FLOOR.);
#457=IFCSLAB('2z46GwkfL2EPv6awfIRo2$',#5,'Scan slab-6',$,$,#443,#456,$,.FLOOR.);
#473=IFCPIPESEGMENT('3wIppcBr95ZOOJtbA9W8R$',#5,'Scan pipe-0',$,$,#463,#472,$,.NOTDEFINED.);
ENDSEC;
END-ISO-10303-21;
