<svg xmlns="http://www.w3.org/2000/svg" xmlns:xlink="http://www.w3.org/1999/xlink" width="24" height="24" viewBox="0 0 24 24" fill="none"><path d="M11.8 19.2C7.8 19.2 4.5 15.9 4.5 11.9C4.5 7.89998 7.8 4.59998 11.8 4.59998C15.8 4.59998 19.1 7.89998 19.1 11.9C19.2 15.9 15.9 19.2 11.8 19.2ZM11.8 5.49998C8.29999 5.49998 5.50001 8.29996 5.50001 11.8C5.50001 15.3 8.29999 18.1 11.8 18.1C15.3 18.1 18.1 15.3 18.1 11.8C18.2 8.39997 15.3 5.49998 11.8 5.49998Z"   fill="#000000" ></path><path d="M9.30005 11.3L14.3 11.3L14.3 12.3001L9.30005 12.3001L9.30005 11.3Z"   fill="#0063B1" ></path><path d="M11.3 9.30005L12.3001 9.30005L12.3001 14.3L11.3 14.3L11.3 9.30005Z"   fill="#0063B1" ></path><path d="M19 19.5C18.9 19.5 18.7 19.5 18.6 19.4L16.4 17.2C16.2 17 16.2 16.7 16.4 16.5C16.6 16.3 16.9 16.3 17.1 16.5L19.3 18.7C19.5 18.9 19.5 19.2 19.3 19.4C19.3 19.4 19.1 19.5 19 19.5Z"   fill="#000000" ></path></svg>